<!-- Generator: Adobe Illustrator 19.2.1, SVG Export Plug-In  -->
<svg version="1.1"
	 xmlns="http://www.w3.org/2000/svg" xmlns:xlink="http://www.w3.org/1999/xlink" xmlns:a="http://ns.adobe.com/AdobeSVGViewerExtensions/3.0/"
	 x="0px" y="0px" width="298px" height="406.8px" viewBox="0 0 298 406.8" style="enable-background:new 0 0 298 406.8;"
	 xml:space="preserve">
<style type="text/css">
	.st0{fill:#FDD835;}
</style>
<defs>
</defs>
<g>
	<polygon class="st0" points="122.8,276.1 122.7,276.3 122.8,276.3 122.8,276 	"/>
	<path class="st0" d="M101.2,248.5c1.8,0,3.3-1,4.1-2.4c0.4-0.7,0.6-1.5,0.6-2.4c0-2.6-2.1-4.8-4.8-4.8s-4.8,2.1-4.8,4.8
		c0,0.9,0.2,1.7,0.6,2.4C97.9,247.6,99.5,248.5,101.2,248.5z"/>
	<path class="st0" d="M83.8,128.8h2.4c0.7,0,1.2-0.8,1.2-1.5s-0.5-1.5-1.2-1.5h-2.4c-0.7,0-1.2,0.8-1.2,1.5S83.2,128.8,83.8,128.8z"
		/>
	<path class="st0" d="M91,128.8h27.6c0.7,0,1.2-0.8,1.2-1.5s-0.5-1.5-1.2-1.5H91c-0.7,0-1.2,0.8-1.2,1.5S90.4,128.8,91,128.8z"/>
	<path class="st0" d="M47.3,377.8h-5.3c-0.9,0-1.7,1.1-1.7,2s0.8,2,1.7,2h5.3c0.9,0,1.7-1.1,1.7-2S48.2,377.8,47.3,377.8z"/>
	<path class="st0" d="M60.3,377.8h-5.3c-0.9,0-1.7,1.1-1.7,2s0.8,2,1.7,2h5.3c0.9,0,1.7-1.1,1.7-2S61.2,377.8,60.3,377.8z"/>
	<path class="st0" d="M112.3,377.8H68.1c-0.9,0-1.7,1.1-1.7,2s0.8,2,1.7,2h44.3c0.9,0,1.7-1.1,1.7-2S113.2,377.8,112.3,377.8z"/>
	<path class="st0" d="M138.3,377.8h-5.3c-0.9,0-1.7,1.1-1.7,2s0.8,2,1.7,2h5.3c0.9,0,1.7-1.1,1.7-2S139.3,377.8,138.3,377.8z"/>
	<path class="st0" d="M151.3,377.8h-5.3c-0.9,0-1.7,1.1-1.7,2s0.8,2,1.7,2h5.3c0.9,0,1.7-1.1,1.7-2S152.3,377.8,151.3,377.8z"/>
	<path class="st0" d="M161.1,377.8h-3.5c-0.9,0-1.7,1.1-1.7,2s0.8,2,1.7,2h3.5c0.9,0,1.7-1.1,1.7-2S162,377.8,161.1,377.8z"/>
	<path class="st0" d="M170.9,377.8h-3.5c-0.9,0-1.7,1.1-1.7,2s0.8,2,1.7,2h3.5c0.9,0,1.7-1.1,1.7-2S171.9,377.8,170.9,377.8z"/>
	<path class="st0" d="M170.9,369.8h-3.5c-0.9,0-1.7,1.1-1.7,2s0.8,2,1.7,2h3.5c0.9,0,1.7-1.1,1.7-2S171.9,369.8,170.9,369.8z"/>
	<path class="st0" d="M180.8,377.8h-3.5c-0.9,0-1.7,1.1-1.7,2s0.8,2,1.7,2h3.5c0.9,0,1.7-1.1,1.7-2S181.7,377.8,180.8,377.8z"/>
	<path class="st0" d="M190,377.8h-3.5c-0.9,0-1.7,1.1-1.7,2s0.8,2,1.7,2h3.5c0.9,0,1.7-1.1,1.7-2S190.9,377.8,190,377.8z"/>
	<path class="st0" d="M199.9,377.8h-3.5c-0.9,0-1.7,1.1-1.7,2s0.8,2,1.7,2h3.5c0.9,0,1.7-1.1,1.7-2S200.8,377.8,199.9,377.8z"/>
	<path class="st0" d="M209.8,377.8h-3.5c-0.9,0-1.7,1.1-1.7,2s0.8,2,1.7,2h3.5c0.9,0,1.7-1.1,1.7-2S210.7,377.8,209.8,377.8z"/>
	<path class="st0" d="M190,361.8h-3.5c-0.9,0-1.7,1.1-1.7,2s0.8,2,1.7,2h3.5c0.9,0,1.7-1.1,1.7-2S190.9,361.8,190,361.8z"/>
	<path class="st0" d="M199.9,361.8h-3.5c-0.9,0-1.7,1.1-1.7,2s0.8,2,1.7,2h3.5c0.9,0,1.7-1.1,1.7-2S200.8,361.8,199.9,361.8z"/>
	<path class="st0" d="M209.8,361.8h-3.5c-0.9,0-1.7,1.1-1.7,2s0.8,2,1.7,2h3.5c0.9,0,1.7-1.1,1.7-2S210.7,361.8,209.8,361.8z"/>
	<path class="st0" d="M190,353.8h-3.5c-0.9,0-1.7,1.1-1.7,2s0.8,2,1.7,2h3.5c0.9,0,1.7-1.1,1.7-2S190.9,353.8,190,353.8z"/>
	<path class="st0" d="M199.9,353.8h-3.5c-0.9,0-1.7,1.1-1.7,2s0.8,2,1.7,2h3.5c0.9,0,1.7-1.1,1.7-2S200.8,353.8,199.9,353.8z"/>
	<path class="st0" d="M209.8,353.8h-3.5c-0.9,0-1.7,1.1-1.7,2s0.8,2,1.7,2h3.5c0.9,0,1.7-1.1,1.7-2S210.7,353.8,209.8,353.8z"/>
	<path class="st0" d="M190,346.8h-3.5c-0.9,0-1.7,1.1-1.7,2s0.8,2,1.7,2h3.5c0.9,0,1.7-1.1,1.7-2S190.9,346.8,190,346.8z"/>
	<path class="st0" d="M199.9,346.8h-3.5c-0.9,0-1.7,1.1-1.7,2s0.8,2,1.7,2h3.5c0.9,0,1.7-1.1,1.7-2S200.8,346.8,199.9,346.8z"/>
	<path class="st0" d="M209.8,346.8h-3.5c-0.9,0-1.7,1.1-1.7,2s0.8,2,1.7,2h3.5c0.9,0,1.7-1.1,1.7-2S210.7,346.8,209.8,346.8z"/>
	<path class="st0" d="M125.3,377.8h-5.3c-0.9,0-1.7,1.1-1.7,2s0.8,2,1.7,2h5.3c0.9,0,1.7-1.1,1.7-2S126.3,377.8,125.3,377.8z"/>
	<path class="st0" d="M60.3,361.8h-5.3h-13c-0.9,0-1.7,1.1-1.7,2s0.8,2,1.7,2h13h5.3c0.9,0,1.7-1.1,1.7-2S61.2,361.8,60.3,361.8z"/>
	<path class="st0" d="M68.1,365.8h5.3c0.9,0,1.7-1.1,1.7-2s-0.8-2-1.7-2h-5.3c-0.9,0-1.7,1.1-1.7,2S67.1,365.8,68.1,365.8z"/>
	<path class="st0" d="M81.1,365.8h5.3c0.9,0,1.7-1.1,1.7-2s-0.8-2-1.7-2h-5.3c-0.9,0-1.7,1.1-1.7,2S80.1,365.8,81.1,365.8z"/>
	<path class="st0" d="M94.1,365.8h5.3c0.9,0,1.7-1.1,1.7-2s-0.8-2-1.7-2h-5.3c-0.9,0-1.7,1.1-1.7,2S93.1,365.8,94.1,365.8z"/>
	<path class="st0" d="M112.3,361.8h-5.3c-0.9,0-1.7,1.1-1.7,2s0.8,2,1.7,2h5.3c0.9,0,1.7-1.1,1.7-2S113.2,361.8,112.3,361.8z"/>
	<path class="st0" d="M151.3,361.8h-5.3h-13c-0.9,0-1.7,1.1-1.7,2s0.8,2,1.7,2h13h5.3c0.9,0,1.7-1.1,1.7-2S152.3,361.8,151.3,361.8z
		"/>
	<path class="st0" d="M125.3,361.8h-5.3c-0.9,0-1.7,1.1-1.7,2s0.8,2,1.7,2h5.3c0.9,0,1.7-1.1,1.7-2S126.3,361.8,125.3,361.8z"/>
	<path class="st0" d="M42.1,357.8h5.3c0.9,0,1.7-1.1,1.7-2s-0.8-2-1.7-2h-5.3c-0.9,0-1.7,1.1-1.7,2S41.1,357.8,42.1,357.8z"/>
	<path class="st0" d="M60.3,353.8h-5.3c-0.9,0-1.7,1.1-1.7,2s0.8,2,1.7,2h5.3c0.9,0,1.7-1.1,1.7-2S61.2,353.8,60.3,353.8z"/>
	<path class="st0" d="M68.1,357.8h5.3c0.9,0,1.7-1.1,1.7-2s-0.8-2-1.7-2h-5.3c-0.9,0-1.7,1.1-1.7,2S67.1,357.8,68.1,357.8z"/>
	<path class="st0" d="M81.1,357.8h5.3c0.9,0,1.7-1.1,1.7-2s-0.8-2-1.7-2h-5.3c-0.9,0-1.7,1.1-1.7,2S80.1,357.8,81.1,357.8z"/>
	<path class="st0" d="M94.1,357.8h5.3c0.9,0,1.7-1.1,1.7-2s-0.8-2-1.7-2h-5.3c-0.9,0-1.7,1.1-1.7,2S93.1,357.8,94.1,357.8z"/>
	<path class="st0" d="M112.3,353.8h-5.3c-0.9,0-1.7,1.1-1.7,2s0.8,2,1.7,2h5.3c0.9,0,1.7-1.1,1.7-2S113.2,353.8,112.3,353.8z"/>
	<path class="st0" d="M133.1,357.8h5.3c0.9,0,1.7-1.1,1.7-2s-0.8-2-1.7-2h-5.3c-0.9,0-1.7,1.1-1.7,2S132.1,357.8,133.1,357.8z"/>
	<path class="st0" d="M151.3,353.8h-5.3c-0.9,0-1.7,1.1-1.7,2s0.8,2,1.7,2h5.3c0.9,0,1.7-1.1,1.7-2S152.3,353.8,151.3,353.8z"/>
	<path class="st0" d="M125.3,353.8h-5.3c-0.9,0-1.7,1.1-1.7,2s0.8,2,1.7,2h5.3c0.9,0,1.7-1.1,1.7-2S126.3,353.8,125.3,353.8z"/>
	<path class="st0" d="M42.1,350.8h5.3c0.9,0,1.7-1.1,1.7-2s-0.8-2-1.7-2h-5.3c-0.9,0-1.7,1.1-1.7,2S41.1,350.8,42.1,350.8z"/>
	<path class="st0" d="M60.3,346.8h-5.3c-0.9,0-1.7,1.1-1.7,2s0.8,2,1.7,2h5.3c0.9,0,1.7-1.1,1.7-2S61.2,346.8,60.3,346.8z"/>
	<path class="st0" d="M68.1,350.8h5.3c0.9,0,1.7-1.1,1.7-2s-0.8-2-1.7-2h-5.3c-0.9,0-1.7,1.1-1.7,2S67.1,350.8,68.1,350.8z"/>
	<path class="st0" d="M81.1,350.8h5.3c0.9,0,1.7-1.1,1.7-2s-0.8-2-1.7-2h-5.3c-0.9,0-1.7,1.1-1.7,2S80.1,350.8,81.1,350.8z"/>
	<path class="st0" d="M94.1,350.8h5.3c0.9,0,1.7-1.1,1.7-2s-0.8-2-1.7-2h-5.3c-0.9,0-1.7,1.1-1.7,2S93.1,350.8,94.1,350.8z"/>
	<path class="st0" d="M112.3,346.8h-5.3c-0.9,0-1.7,1.1-1.7,2s0.8,2,1.7,2h5.3c0.9,0,1.7-1.1,1.7-2S113.2,346.8,112.3,346.8z"/>
	<path class="st0" d="M133.1,350.8h5.3c0.9,0,1.7-1.1,1.7-2s-0.8-2-1.7-2h-5.3c-0.9,0-1.7,1.1-1.7,2S132.1,350.8,133.1,350.8z"/>
	<path class="st0" d="M151.3,346.8h-5.3c-0.9,0-1.7,1.1-1.7,2s0.8,2,1.7,2h5.3c0.9,0,1.7-1.1,1.7-2S152.3,346.8,151.3,346.8z"/>
	<path class="st0" d="M125.3,346.8h-5.3c-0.9,0-1.7,1.1-1.7,2s0.8,2,1.7,2h5.3c0.9,0,1.7-1.1,1.7-2S126.3,346.8,125.3,346.8z"/>
	<path class="st0" d="M190,369.8h-3.5c-0.9,0-1.7,1.1-1.7,2s0.8,2,1.7,2h3.5c0.9,0,1.7-1.1,1.7-2S190.9,369.8,190,369.8z"/>
	<path class="st0" d="M199.9,369.8h-3.5c-0.9,0-1.7,1.1-1.7,2s0.8,2,1.7,2h3.5c0.9,0,1.7-1.1,1.7-2S200.8,369.8,199.9,369.8z"/>
	<path class="st0" d="M209.8,369.8h-3.5c-0.9,0-1.7,1.1-1.7,2s0.8,2,1.7,2h3.5c0.9,0,1.7-1.1,1.7-2S210.7,369.8,209.8,369.8z"/>
	<path class="st0" d="M42.1,373.8h5.3c0.9,0,1.7-1.1,1.7-2s-0.8-2-1.7-2h-5.3c-0.9,0-1.7,1.1-1.7,2S41.1,373.8,42.1,373.8z"/>
	<path class="st0" d="M60.3,369.8h-5.3c-0.9,0-1.7,1.1-1.7,2s0.8,2,1.7,2h5.3c0.9,0,1.7-1.1,1.7-2S61.2,369.8,60.3,369.8z"/>
	<path class="st0" d="M68.1,373.8h5.3c0.9,0,1.7-1.1,1.7-2s-0.8-2-1.7-2h-5.3c-0.9,0-1.7,1.1-1.7,2S67.1,373.8,68.1,373.8z"/>
	<path class="st0" d="M81.1,373.8h5.3c0.9,0,1.7-1.1,1.7-2s-0.8-2-1.7-2h-5.3c-0.9,0-1.7,1.1-1.7,2S80.1,373.8,81.1,373.8z"/>
	<path class="st0" d="M94.1,373.8h5.3c0.9,0,1.7-1.1,1.7-2s-0.8-2-1.7-2h-5.3c-0.9,0-1.7,1.1-1.7,2S93.1,373.8,94.1,373.8z"/>
	<path class="st0" d="M112.3,369.8h-5.3c-0.9,0-1.7,1.1-1.7,2s0.8,2,1.7,2h5.3c0.9,0,1.7-1.1,1.7-2S113.2,369.8,112.3,369.8z"/>
	<path class="st0" d="M133.1,373.8h5.3c0.9,0,1.7-1.1,1.7-2s-0.8-2-1.7-2h-5.3c-0.9,0-1.7,1.1-1.7,2S132.1,373.8,133.1,373.8z"/>
	<path class="st0" d="M151.3,369.8h-5.3c-0.9,0-1.7,1.1-1.7,2s0.8,2,1.7,2h5.3c0.9,0,1.7-1.1,1.7-2S152.3,369.8,151.3,369.8z"/>
	<path class="st0" d="M125.3,369.8h-5.3c-0.9,0-1.7,1.1-1.7,2s0.8,2,1.7,2h5.3c0.9,0,1.7-1.1,1.7-2S126.3,369.8,125.3,369.8z"/>
	<circle class="st0" cx="204.4" cy="340.6" r="1.7"/>
	<circle class="st0" cx="209.6" cy="340.6" r="1.7"/>
	<path class="st0" d="M222.8,272.8H123v-16h69.4c5.8,0,9.6-4.8,9.6-10.6V124.4c0-5.8-3.8-10.7-9.6-10.7H10.2
		c-5.8,0-10.2,4.9-10.2,10.7v121.7c0,5.8,4.4,10.6,10.2,10.6H79v21h-6.2c-4.5,0-6.8,4-6.8,8.5v0.5c0,4.5,2.3,8,6.8,8h56.9
		c4.5,0,8.3-3.5,8.3-8v-0.5c0-4.5-3.8-8.5-8.3-8.5H123v-1h99.8c1,0,2.2,0,2.8,0.7c0.7,0.7,1.4,1.2,1.4,2.2v61.4c0,1-0.8,1.9-1.4,2.5
		c-0.6,0.6-0.6,1-2.6,1v-5.3c0-5.5-4.4-10.5-9.9-10.5H38.7c-5.5,0-9.7,5-9.7,10.5v44.8c0,5.5,4.2,9.7,9.7,9.7h174.4
		c5.5,0,9.9-4.1,9.9-9.7v-35.2c2-0.1,4.1-1,5.4-2.3c1.4-1.4,2.6-3.4,2.6-5.6v-61.4c0-2.2-1.1-3.6-2.5-5
		C227.1,273.1,225,271.8,222.8,272.8z M133,286.3v0.5c0,1.8-1.4,4-3.3,4h-9.2H82h-9.2c-1.8,0-2.8-2.1-2.8-4v-0.5
		c0-1.8,1-2.5,2.8-2.5h6.5h2.4h2.4h34.4h2.4h2.4h6.4C131.6,283.8,133,284.5,133,286.3z M118,277.8H84v-21h34V277.8z M10.2,118.8
		h182.2c3.2,0,5.6,2.5,5.6,5.7v11.3h-32.9c0,0,0,0,0,0H5v-11.3C5,121.3,7,118.8,10.2,118.8z M198,231.8H5v-94h157.2L123.1,177
		c-0.5,0.5-0.5,1.3,0,1.8c0.5,0.5,1.2,0.4,1.7-0.1l40.8-40.9h7.3L109.8,201c-0.5,0.5-0.5,1.3,0,1.8c0.5,0.5,1.2,0.5,1.7,0l63.9-64
		c0.2-0.2,0.3-1,0.3-1H198V231.8z M5,234.8h193v11.4c0,3.2-2.5,5.6-5.6,5.6h-69.3h-2.6h-2.9H84.9H82h-2.6H10.2
		c-3.2,0-5.2-2.5-5.2-5.6V234.8z M122.7,276.3l0.1-0.1l0.1-0.1v0.2H122.7z M218,383c0,3.2-2.6,5.7-5.7,5.7H38.7
		c-3.2,0-5.7-2.6-5.7-5.7v-44.5c0-3.2,2.6-5.7,5.7-5.7h173.5c3.2,0,5.7,2.6,5.7,5.7V383z"/>
	<path class="st0" d="M273,335.2c-16,0-25,10.7-25,23.9v23.9c0,13.2,9.5,23.9,26.5,23.9c13.3,0,23.5-10.7,23.5-23.9v-23.9
		C298,345.9,288,335.2,273,335.2z M293,382.9c0,10.8-9.2,19.6-20,19.6s-20-8.8-20-19.6v-23.9c0-10.8,9.2-19.6,20-19.6
		s20,8.8,20,19.6V382.9z"/>
	<path class="st0" d="M273.5,342.7c-1.4,0-2.5,0.8-2.5,1.9v21.8c0,1,1.1,1.9,2.5,1.9s2.5-0.8,2.5-1.9v-21.8
		C276,343.5,274.9,342.7,273.5,342.7z"/>
</g>
<g>
	<polygon class="st0" points="170.4,90.7 170.4,90.6 170.4,90.7 	"/>
	<path class="st0" d="M169.4,92.7L169.4,92.7L169.4,92.7L169.4,92.7c0-0.1-0.1-0.2-0.1-0.4c0,0,0,0,0,0
		C169.3,92.3,169.4,92.6,169.4,92.7l0.6-0.3l0,0l-0.1,0.1L169.4,92.7z"/>
	<polygon class="st0" points="171.1,92.1 171,92 170.5,91 170.5,91 170.6,91.2 170.6,91.2 171,92 171.2,92.1 171.1,92.1 	"/>
	<path class="st0" d="M174.6,71.7c4.5-1,8.2-3.6,10.8-7c2.6-3.5,3.9-7.8,3.5-12.3v0c0.3,4.5-1,8.8-3.5,12.3
		C182.8,68.1,179.1,70.7,174.6,71.7L164,74.1c-0.1,0-0.1,0-0.1,0c0,0,0.1,0,0.1,0L174.6,71.7z"/>
	<path class="st0" d="M220.3,112.7c0.1,0.2,0.2,0.5,0.2,0.7c0,0,0,0,0,0c0-0.1-0.1-0.4-0.2-0.6l-1.7,0.8L220.3,112.7l-1.6,0.8
		L220.3,112.7z"/>
	<path class="st0" d="M230.8,106.8c1.1-0.9,2.1-2,2.9-3.1c0.8-1.1,1.5-2.4,1.9-3.7c0.4-1.2,1.7-2,2.9-1.7l3.9,0.9
		c1.8,0.4,3.5,0.5,5.3,0.4c1.5-0.1,3-0.4,4.5-0.9c-1.4,0.5-2.9,0.8-4.5,0.9c-1.7,0.1-3.5,0-5.3-0.4l-3.9-0.9
		c-1.3-0.3-2.5,0.5-2.9,1.7c-0.4,1.3-1.1,2.6-1.9,3.7C232.9,104.8,231.9,105.8,230.8,106.8c-2.2,1.9-4.8,3.3-7.1,4.1
		c-0.1,0.1-0.3,0.1-0.4,0.2c-0.7,0.9-1.6,1.8-2.5,2.7c-0.3,0.3-0.4,0.5-0.4,0.5l-0.6-0.4l0,0l0-0.1l0.1,0.1l0.6,0.4
		c0,0,0.1-0.2,0.4-0.5c1-0.9,1.8-1.8,2.6-2.7c0.1,0,0.3-0.1,0.4-0.1C226,110,228.6,108.6,230.8,106.8z"/>
	<path class="st0" d="M118.4,32.1c0.1,0.4,0.1,0.9,0.2,1.3l6.7,30.4c1,4.5,3.6,8.2,7,10.8c3.5,2.5,7.8,3.9,12.3,3.5c0,0,0,0,0,0
		c-4.5,0.3-8.8-1-12.3-3.5c-3.5-2.6-6.1-6.3-7-10.8l-6.7-30.4C118.6,32.9,118.5,32.5,118.4,32.1z"/>
	<path class="st0" d="M154.1,78.6c0.6,1.9,1.7,3.6,3.1,5.2c2.1,2.3,4.8,4,7.4,5.2c0.6,0.3,1.3,0.5,1.8,0.7c0,0,0,0,0,0
		c-0.6-0.2-1.2-0.4-1.9-0.7c-2.6-1.1-5.3-2.9-7.4-5.2C155.8,82.3,154.7,80.5,154.1,78.6c-0.3-1.1-1.4-1.8-2.5-1.8
		C152.8,76.8,153.8,77.5,154.1,78.6z"/>
	<path class="st0" d="M113.3,31.2c0.1,1.1,0.2,2.2,0.5,3.3l6.7,30.4l2.4-0.5l-2.4,0.5c1.3,5.7,4.6,10.5,9,13.7
		c4.4,3.2,9.9,4.9,15.6,4.5c1.1-0.1,2.2-0.2,3.3-0.5l1.8-0.4c1.2,2.6,3,4.8,5,6.6c2.5,2.3,5.4,3.9,8.1,5c1.8,0.7,3.5,1.2,4.9,1.4
		c0.9,0.1,1.6,0.2,2.4,0.1c0.4,0,0.8-0.1,1.2-0.2c0.4-0.1,0.8-0.3,1.3-0.7c0.3-0.2,0.6-0.6,0.8-1c0.3-0.5,0.4-1.2,0.4-1.7
		c0-0.4-0.1-0.8-0.3-1.1c-0.1-0.3-0.3-0.6-0.5-0.8c-0.3-0.5-0.7-0.9-1.2-1.3c-2-1.8-3.3-3.6-4.1-5.3c-0.8-1.7-1.1-3.2-1.2-4.6
		c0-0.1,0-0.2,0-0.2l8.6-1.9c5.7-1.3,10.5-4.6,13.7-9c3.2-4.4,4.9-9.9,4.5-15.6c-0.1-1.1-0.2-2.2-0.5-3.3l-6.7-30.4
		c-1.3-5.7-4.6-10.5-9-13.7c-4.4-3.2-9.9-4.9-15.6-4.5c-1.1,0.1-2.2,0.2-3.3,0.5l-27.3,6c-5.7,1.3-10.5,4.6-13.7,9
		C114.6,20,112.9,25.5,113.3,31.2z M171.2,92.1L171.2,92.1l-0.1,0L171,92l-0.5-0.9l0,0l0.1,0.1l0,0L171,92L171.2,92.1z M170.4,90.6
		l0,0.1c0,0,0,0,0,0L170.4,90.6z M170,92.4L170,92.4l-0.6,0.3l0,0.1l0,0l0-0.1c0-0.1-0.1-0.2-0.1-0.4c0,0,0,0,0,0
		c0,0.1,0.1,0.4,0.1,0.4L170,92.4L170,92.4z M118.7,33.4c-0.1-0.4-0.2-0.9-0.2-1.3c-0.1-0.4-0.1-0.9-0.1-1.3
		c-0.3-4.5,1-8.8,3.5-12.3c2.6-3.5,6.3-6.1,10.8-7l27.3-6c0.9-0.2,1.7-0.3,2.6-0.4c4.5-0.3,8.8,1,12.3,3.5c3.5,2.6,6.1,6.3,7,10.8
		l6.7,30.4c0.2,0.9,0.3,1.7,0.4,2.6v0c0.3,4.5-1,8.8-3.5,12.3c-2.6,3.5-6.3,6.1-10.8,7L164,74.1c-0.1,0-0.1,0-0.1,0
		c-1,0.3-1.7,1.2-1.8,2.2c-0.1,0.8-0.1,1.8,0,2.8c0,0,0,0,0,0c0.1,1.9,0.6,4.1,1.7,6.4c0.6,1.4,1.5,2.8,2.7,4.1c0,0,0,0,0,0
		c-0.6-0.2-1.2-0.4-1.9-0.7c-2.6-1.1-5.3-2.9-7.4-5.2c-1.4-1.5-2.5-3.2-3.1-5.2c-0.3-1.1-1.4-1.8-2.5-1.8c-0.2,0-0.3,0-0.5,0.1
		l-3.9,0.9c-0.9,0.2-1.7,0.3-2.6,0.4c0,0,0,0,0,0c-4.5,0.3-8.8-1-12.3-3.5c-3.5-2.6-6.1-6.3-7-10.8L118.7,33.4z"/>
	<ellipse transform="matrix(0.8992 -0.4376 0.4376 0.8992 -3.062 66.5566)" class="st0" cx="142.9" cy="39.9" rx="3.6" ry="3.6"/>
	<ellipse transform="matrix(0.8992 -0.4376 0.4376 0.8992 0.8344 74.9546)" class="st0" cx="163.1" cy="35.7" rx="3.6" ry="3.6"/>
	<path class="st0" d="M149.4,49.8c0.6-0.1,1.2,0.2,1.3,0.8l0,0c0.5,2.3,2.7,3.8,4.9,3.6c0.2,0,0.5-0.1,0.7-0.1
		c2.3-0.5,3.8-2.7,3.6-4.9c0-0.2-0.1-0.5-0.1-0.7c-0.1-0.6,0.2-1.2,0.8-1.3c0.6-0.1,1.2,0.2,1.3,0.8c0.1,0.4,0.1,0.7,0.2,1.1
		c0.3,3.3-1.9,6.4-5.3,7.2c-0.4,0.1-0.7,0.1-1.1,0.2c-3.3,0.3-6.4-1.9-7.2-5.3C148.5,50.5,148.8,49.9,149.4,49.8z"/>
	<path class="st0" d="M196.2,70.2c-0.5,2.3-0.6,4.5-0.5,6.7c0.4,5,2.4,9.7,5.6,13.5c3.2,3.7,7.6,6.5,12.7,7.6l8.6,1.9
		c-0.1,1.1-0.3,2.3-0.7,3.5c-0.7,2-2,4.3-4.6,6.6c-0.4,0.3-0.7,0.7-1,1.1c-0.3,0.4-0.6,0.8-0.7,1.4c-0.1,0.4-0.2,0.8-0.2,1.3
		c0,0.4,0.1,0.8,0.4,1.2c0.2,0.4,0.5,0.7,0.7,0.9c0.6,0.5,1.1,0.7,1.6,0.8c0.3,0.1,0.6,0.1,1,0.1c0.4,0,0.8,0,1.3,0
		c1.1-0.1,2.3-0.3,3.7-0.7c1.3-0.4,2.8-1,4.2-1.7c2.9-1.4,5.9-3.5,8.4-6.3c1.1-1.3,2.1-2.8,2.9-4.5l1.8,0.4c2.3,0.5,4.5,0.6,6.7,0.5
		c5-0.4,9.7-2.4,13.5-5.6c3.7-3.2,6.5-7.6,7.6-12.7l6.7-30.5c0.5-2.3,0.6-4.5,0.5-6.7c-0.4-5-2.4-9.7-5.6-13.5
		c-3.2-3.7-7.6-6.5-12.7-7.6l-27.3-6c-2.3-0.5-4.5-0.6-6.7-0.5c-5,0.4-9.7,2.4-13.5,5.6c-3.7,3.2-6.5,7.6-7.6,12.7L196.2,70.2z
		 M264.3,85l2.4,0.5L264.3,85c-0.9,4-3.1,7.5-6,10c-0.4,0.3-0.7,0.6-1.1,0.9c-0.8,0.6-1.6,1.1-2.5,1.5c-0.8,0.4-1.6,0.8-2.5,1.1
		c-1.4,0.5-2.9,0.8-4.5,0.9c-1.7,0.1-3.5,0-5.3-0.4l-3.9-0.9c-1.3-0.3-2.5,0.5-2.9,1.7c-0.4,1.3-1.1,2.6-1.9,3.7
		c-0.8,1.1-1.8,2.2-2.9,3.1c-2.2,1.9-4.8,3.3-7.1,4.1c-0.1,0.1-0.3,0.1-0.4,0.2c-0.7,0.9-1.6,1.8-2.5,2.7c-0.3,0.3-0.4,0.5-0.4,0.5
		l-0.6-0.4l0,0l0-0.1l0.1,0.1l0.6,0.4c0,0,0.1-0.2,0.4-0.5c1-0.9,1.8-1.8,2.5-2.7c1.6-2,2.7-4,3.4-6c1-2.8,1.1-5.4,0.9-7.4
		c-0.1-1.1-0.9-2-2-2.3l-10.6-2.3c-4-0.9-7.5-3.1-10-6c-2.5-2.9-4.1-6.7-4.4-10.6c-0.1-1.7,0-3.5,0.4-5.3l6.7-30.5
		c0.9-4,3.1-7.5,6-10c2.9-2.5,6.7-4.1,10.6-4.4c1.7-0.1,3.5,0,5.3,0.4l27.3,6c4,0.9,7.5,3.1,10,6c2.5,2.9,4.1,6.7,4.4,10.6
		c0.1,1.7,0,3.5-0.4,5.3L264.3,85z M220.3,112.7l-1.6,0.7L220.3,112.7c0.1,0.2,0.2,0.4,0.2,0.6c0,0,0,0,0,0
		C220.4,113.2,220.4,112.9,220.3,112.7l-1.7,0.9L220.3,112.7z"/>
	<ellipse transform="matrix(0.4351 -0.9004 0.9004 0.4351 84.2618 256.6803)" class="st0" cx="246.7" cy="61.2" rx="3.6" ry="3.6"/>
	<ellipse transform="matrix(0.4351 -0.9004 0.9004 0.4351 76.6423 236.1318)" class="st0" cx="226.5" cy="57" rx="3.6" ry="3.6"/>
	<path class="st0" d="M233.9,80.6c-0.5,0-1,0-1.5,0c-3.3-0.5-5.7-3.1-5.9-6.3c0-0.5,0-1,0-1.5c0.1-0.6,0.6-1,1.2-0.9
		c0.6,0.1,1,0.6,0.9,1.2l0,0c0,0.3-0.1,0.7,0,1c0.2,2.2,1.8,4,4.1,4.3c0.3,0,0.7,0.1,1,0c2.2-0.2,4-1.8,4.3-4.1
		c0.1-0.6,0.6-1,1.2-0.9c0.6,0.1,1,0.6,0.9,1.2C239.8,78,237.1,80.4,233.9,80.6z"/>
</g>
</svg>
