<!-- Generator: Adobe Illustrator 19.2.1, SVG Export Plug-In  -->
<svg version="1.1"
	 xmlns="http://www.w3.org/2000/svg" xmlns:xlink="http://www.w3.org/1999/xlink" xmlns:a="http://ns.adobe.com/AdobeSVGViewerExtensions/3.0/"
	 x="0px" y="0px" width="348.4px" height="56.4px" viewBox="0 0 348.4 56.4" style="enable-background:new 0 0 348.4 56.4;"
	 xml:space="preserve">
<style type="text/css">
	.st0{fill:#FDD835;}
	.st1{fill:none;}
</style>
<defs>
</defs>
<g>
	<path class="st0" d="M72.6,22.6v-2.9h7l0.2,2.1c0.5-0.8,1.2-1.4,1.9-1.8s1.6-0.6,2.6-0.6c2.2,0,4,0.9,5.2,2.6
		c1.2,1.7,1.8,4,1.8,6.9v0.3c0,2.7-0.6,4.8-1.8,6.4c-1.2,1.6-2.9,2.4-5.2,2.4c-0.9,0-1.8-0.2-2.5-0.5c-0.7-0.3-1.4-0.9-1.9-1.5v5.2
		l2.3,0.5v2.9h-9.5v-2.9l2.3-0.5v-18L72.6,22.6z M86.6,28.9c0-1.7-0.3-3.1-0.8-4.1c-0.6-1.1-1.4-1.6-2.6-1.6c-0.7,0-1.4,0.1-1.9,0.4
		c-0.5,0.3-0.9,0.7-1.2,1.3v7.9c0.3,0.5,0.7,0.9,1.2,1.2c0.5,0.3,1.1,0.4,1.9,0.4c1.2,0,2-0.5,2.6-1.4s0.8-2.2,0.8-3.7V28.9z"/>
	<path class="st0" d="M92.8,14.7v-2.9h7.4v22.5l2.3,0.5v2.9H93v-2.9l2.3-0.5V15.2L92.8,14.7z"/>
	<path class="st0" d="M112.7,38c-2.6,0-4.7-0.8-6.2-2.5c-1.6-1.7-2.3-3.8-2.3-6.3v-0.7c0-2.7,0.7-4.9,2.2-6.6
		c1.5-1.7,3.4-2.6,5.9-2.6c2.4,0,4.3,0.7,5.6,2.2c1.3,1.5,2,3.4,2,5.9v2.6h-10.7l0,0.1c0.1,1.2,0.5,2.2,1.2,2.9
		c0.7,0.8,1.7,1.1,2.9,1.1c1.1,0,2-0.1,2.7-0.3c0.7-0.2,1.5-0.6,2.3-1l1.3,3c-0.7,0.6-1.7,1.1-2.9,1.5C115.5,37.8,114.2,38,112.7,38
		z M112.3,23.1c-0.9,0-1.6,0.3-2.1,1c-0.5,0.7-0.8,1.6-1,2.7l0,0.1h5.9v-0.4c0-1-0.2-1.9-0.7-2.5C114,23.4,113.3,23.1,112.3,23.1z"
		/>
	<path class="st0" d="M133.7,37.7c-0.1-0.3-0.2-0.6-0.3-0.9c-0.1-0.3-0.2-0.6-0.2-1c-0.6,0.7-1.3,1.2-2.1,1.6
		c-0.8,0.4-1.8,0.6-2.8,0.6c-1.8,0-3.2-0.5-4.2-1.4c-1-1-1.6-2.3-1.6-3.9c0-1.7,0.7-3,2-3.9s3.3-1.4,5.9-1.4h2.5v-1.8
		c0-0.9-0.2-1.5-0.7-2c-0.5-0.5-1.2-0.7-2.2-0.7c-0.6,0-1,0.1-1.5,0.2s-0.8,0.3-1,0.5l-0.3,1.9h-3.7l0-4c0.9-0.6,1.9-1.1,3-1.5
		s2.4-0.6,3.7-0.6c2.2,0,4,0.5,5.4,1.6s2.1,2.6,2.1,4.7v7.4c0,0.3,0,0.5,0,0.8c0,0.2,0,0.5,0.1,0.7l1.5,0.2v2.9H133.7z M129.5,34.5
		c0.7,0,1.4-0.2,2-0.5c0.6-0.3,1.1-0.7,1.4-1.2V30h-2.5c-1,0-1.8,0.2-2.3,0.7s-0.8,1.1-0.8,1.7c0,0.6,0.2,1.1,0.6,1.4
		C128.3,34.3,128.8,34.5,129.5,34.5z"/>
	<path class="st0" d="M155.6,25.9h-3.3l-0.5-2.2c-0.3-0.3-0.8-0.5-1.3-0.7c-0.5-0.2-1.1-0.3-1.7-0.3c-0.9,0-1.5,0.2-2,0.6
		s-0.7,0.9-0.7,1.4c0,0.5,0.2,1,0.7,1.4c0.5,0.4,1.4,0.7,2.9,1c2.2,0.4,3.9,1.1,5,2c1.1,0.9,1.6,2,1.6,3.5c0,1.6-0.7,2.9-2.1,4
		c-1.4,1-3.2,1.5-5.5,1.5c-1.4,0-2.7-0.2-3.8-0.6c-1.2-0.4-2.2-1-3.1-1.7l0-4h3.4l0.7,2.3c0.3,0.2,0.7,0.4,1.2,0.5s1,0.2,1.6,0.2
		c1,0,1.7-0.2,2.3-0.5c0.5-0.4,0.8-0.8,0.8-1.4c0-0.5-0.3-1-0.8-1.4c-0.5-0.4-1.5-0.7-2.9-1c-2.1-0.4-3.7-1.1-4.8-1.9
		s-1.6-2-1.6-3.5c0-1.5,0.6-2.8,1.9-3.9c1.2-1.1,3-1.6,5.3-1.6c1.4,0,2.7,0.2,4,0.6c1.2,0.4,2.2,0.9,2.9,1.4L155.6,25.9z"/>
	<path class="st0" d="M167.1,38c-2.6,0-4.7-0.8-6.2-2.5c-1.6-1.7-2.3-3.8-2.3-6.3v-0.7c0-2.7,0.7-4.9,2.2-6.6
		c1.5-1.7,3.4-2.6,5.9-2.6c2.4,0,4.3,0.7,5.6,2.2c1.3,1.5,2,3.4,2,5.9v2.6h-10.7l0,0.1c0.1,1.2,0.5,2.2,1.2,2.9
		c0.7,0.8,1.7,1.1,2.9,1.1c1.1,0,2-0.1,2.7-0.3c0.7-0.2,1.5-0.6,2.3-1l1.3,3c-0.7,0.6-1.7,1.1-2.9,1.5C169.8,37.8,168.5,38,167.1,38
		z M166.7,23.1c-0.9,0-1.6,0.3-2.1,1c-0.5,0.7-0.8,1.6-1,2.7l0,0.1h5.9v-0.4c0-1-0.2-1.9-0.7-2.5C168.4,23.4,167.6,23.1,166.7,23.1z
		"/>
	<path class="st0" d="M191.3,25.9H188l-0.5-2.2c-0.3-0.3-0.8-0.5-1.3-0.7c-0.5-0.2-1.1-0.3-1.7-0.3c-0.9,0-1.5,0.2-2,0.6
		s-0.7,0.9-0.7,1.4c0,0.5,0.2,1,0.7,1.4c0.5,0.4,1.4,0.7,2.9,1c2.2,0.4,3.9,1.1,5,2c1.1,0.9,1.6,2,1.6,3.5c0,1.6-0.7,2.9-2.1,4
		c-1.4,1-3.2,1.5-5.5,1.5c-1.4,0-2.7-0.2-3.8-0.6c-1.2-0.4-2.2-1-3.1-1.7l0-4h3.4l0.7,2.3c0.3,0.2,0.7,0.4,1.2,0.5s1,0.2,1.6,0.2
		c1,0,1.7-0.2,2.3-0.5c0.5-0.4,0.8-0.8,0.8-1.4c0-0.5-0.3-1-0.8-1.4c-0.5-0.4-1.5-0.7-2.9-1c-2.1-0.4-3.7-1.1-4.8-1.9
		s-1.6-2-1.6-3.5c0-1.5,0.6-2.8,1.9-3.9c1.2-1.1,3-1.6,5.3-1.6c1.4,0,2.7,0.2,4,0.6c1.2,0.4,2.2,0.9,2.9,1.4L191.3,25.9z"/>
	<path class="st0" d="M194.2,28.9c0-2.8,0.6-5.1,1.8-6.9c1.2-1.7,3-2.6,5.2-2.6c1,0,1.8,0.2,2.6,0.6c0.8,0.4,1.4,1,1.9,1.8l0.4-2.2
		h4.2v21.5l2.3,0.5v2.9h-9.5v-2.9l2.3-0.5V36c-0.5,0.7-1.2,1.2-1.9,1.5c-0.7,0.3-1.5,0.5-2.4,0.5c-2.2,0-3.9-0.8-5.2-2.4
		c-1.2-1.6-1.8-3.8-1.8-6.4V28.9z M199,29.2c0,1.6,0.3,2.8,0.8,3.7c0.5,0.9,1.4,1.4,2.6,1.4c0.7,0,1.3-0.1,1.8-0.4
		c0.5-0.3,0.9-0.6,1.2-1.2v-8c-0.3-0.5-0.7-0.9-1.2-1.2c-0.5-0.3-1.1-0.4-1.8-0.4c-1.2,0-2,0.5-2.6,1.6s-0.8,2.4-0.8,4.1V29.2z"/>
	<path class="st0" d="M225.9,35.4c-0.6,0.8-1.3,1.5-2.1,1.9c-0.8,0.5-1.8,0.7-2.9,0.7c-1.9,0-3.4-0.6-4.5-1.8
		c-1.1-1.2-1.6-3.1-1.6-5.7v-7.4l-2-0.5v-2.9h2h4.9v10.9c0,1.3,0.2,2.2,0.7,2.8c0.4,0.6,1.1,0.9,2,0.9c0.8,0,1.4-0.1,2-0.4
		c0.6-0.2,1-0.6,1.4-1.1v-9.7l-2.1-0.5v-2.9h2.1h4.9v14.6l2.2,0.5v2.9h-6.4L225.9,35.4z"/>
	<path class="st0" d="M246,37.7c-0.1-0.3-0.2-0.6-0.3-0.9c-0.1-0.3-0.2-0.6-0.2-1c-0.6,0.7-1.3,1.2-2.1,1.6
		c-0.8,0.4-1.8,0.6-2.8,0.6c-1.8,0-3.2-0.5-4.2-1.4c-1-1-1.6-2.3-1.6-3.9c0-1.7,0.7-3,2-3.9s3.3-1.4,5.9-1.4h2.5v-1.8
		c0-0.9-0.2-1.5-0.7-2c-0.5-0.5-1.2-0.7-2.2-0.7c-0.6,0-1,0.1-1.5,0.2s-0.8,0.3-1,0.5l-0.3,1.9h-3.7l0-4c0.9-0.6,1.9-1.1,3-1.5
		s2.4-0.6,3.7-0.6c2.2,0,4,0.5,5.4,1.6s2.1,2.6,2.1,4.7v7.4c0,0.3,0,0.5,0,0.8c0,0.2,0,0.5,0.1,0.7l1.5,0.2v2.9H246z M241.8,34.5
		c0.7,0,1.4-0.2,2-0.5c0.6-0.3,1.1-0.7,1.4-1.2V30h-2.5c-1,0-1.8,0.2-2.3,0.7s-0.8,1.1-0.8,1.7c0,0.6,0.2,1.1,0.6,1.4
		C240.5,34.3,241.1,34.5,241.8,34.5z"/>
	<path class="st0" d="M267.9,25.9h-3.3l-0.5-2.2c-0.3-0.3-0.8-0.5-1.3-0.7c-0.5-0.2-1.1-0.3-1.7-0.3c-0.9,0-1.5,0.2-2,0.6
		s-0.7,0.9-0.7,1.4c0,0.5,0.2,1,0.7,1.4c0.5,0.4,1.4,0.7,2.9,1c2.2,0.4,3.9,1.1,5,2c1.1,0.9,1.6,2,1.6,3.5c0,1.6-0.7,2.9-2.1,4
		c-1.4,1-3.2,1.5-5.5,1.5c-1.4,0-2.7-0.2-3.8-0.6c-1.2-0.4-2.2-1-3.1-1.7l0-4h3.4l0.7,2.3c0.3,0.2,0.7,0.4,1.2,0.5s1,0.2,1.6,0.2
		c1,0,1.7-0.2,2.3-0.5c0.5-0.4,0.8-0.8,0.8-1.4c0-0.5-0.3-1-0.8-1.4c-0.5-0.4-1.5-0.7-2.9-1c-2.1-0.4-3.7-1.1-4.8-1.9
		c-1.1-0.8-1.6-2-1.6-3.5c0-1.5,0.6-2.8,1.9-3.9c1.2-1.1,3-1.6,5.3-1.6c1.4,0,2.7,0.2,4,0.6c1.2,0.4,2.2,0.9,2.9,1.4L267.9,25.9z"/>
	<path class="st0" d="M270.5,34.8l2.3-0.5V15.2l-2.6-0.5v-2.9h7.4V22c0.6-0.8,1.3-1.5,2.1-1.9c0.8-0.5,1.7-0.7,2.7-0.7
		c1.9,0,3.4,0.6,4.4,1.9c1.1,1.2,1.6,3.2,1.6,5.8v7.3l2.3,0.5v2.9h-9.3v-2.9l2.1-0.5V27c0-1.4-0.2-2.4-0.7-3
		c-0.5-0.6-1.2-0.9-2.2-0.9c-0.7,0-1.3,0.1-1.8,0.4c-0.5,0.2-0.9,0.6-1.3,1v9.7l2.1,0.5v2.9h-9.3V34.8z"/>
	<path class="st0" d="M298.3,37.7h-4.8v-4.3h4.8V37.7z"/>
	<path class="st0" d="M300.5,22.6v-2.9h7.1l0.2,2.4c0.6-0.9,1.3-1.5,2.2-2s1.9-0.7,3-0.7c1.2,0,2.1,0.3,3,0.8
		c0.8,0.5,1.4,1.3,1.9,2.3c0.6-1,1.3-1.7,2.2-2.3c0.9-0.5,1.9-0.8,3.1-0.8c1.8,0,3.2,0.6,4.2,1.8c1,1.2,1.5,3.1,1.5,5.6v7.5l2.3,0.5
		v2.9h-9.3v-2.9l2.1-0.5v-7.5c0-1.4-0.2-2.3-0.7-2.8c-0.4-0.5-1.1-0.8-2-0.8c-0.7,0-1.3,0.2-1.8,0.5c-0.5,0.3-0.9,0.7-1.2,1.3
		c0,0.2,0,0.4,0,0.5c0,0.1,0,0.3,0,0.5v8.4l2,0.5v2.9h-8.8v-2.9l2-0.5v-7.5c0-1.3-0.2-2.3-0.7-2.8c-0.4-0.5-1.1-0.8-2-0.8
		c-0.7,0-1.2,0.1-1.7,0.4c-0.5,0.2-0.9,0.6-1.2,1.1v9.7l2.1,0.5v2.9h-9.3v-2.9l2.3-0.5V23.1L300.5,22.6z"/>
	<path class="st0" d="M341.1,38c-2.6,0-4.7-0.8-6.2-2.5c-1.6-1.7-2.3-3.8-2.3-6.3v-0.7c0-2.7,0.7-4.9,2.2-6.6
		c1.5-1.7,3.4-2.6,5.9-2.6c2.4,0,4.3,0.7,5.6,2.2c1.3,1.5,2,3.4,2,5.9v2.6h-10.7l0,0.1c0.1,1.2,0.5,2.2,1.2,2.9
		c0.7,0.8,1.7,1.1,2.9,1.1c1.1,0,2-0.1,2.7-0.3c0.7-0.2,1.5-0.6,2.3-1l1.3,3c-0.7,0.6-1.7,1.1-2.9,1.5C343.9,37.8,342.6,38,341.1,38
		z M340.7,23.1c-0.9,0-1.6,0.3-2.1,1c-0.5,0.7-0.8,1.6-1,2.7l0,0.1h5.9v-0.4c0-1-0.2-1.9-0.7-2.5C342.4,23.4,341.7,23.1,340.7,23.1z
		"/>
</g>
<path class="st1" d="M8.7,8.8c0.1,1,0.3,2.3,0.5,3.5c-0.2-1.1-0.3-2.5-0.4-3.5H8.7z"/>
<g>
	<path class="st0" d="M56,28.9c0.9-5.7,0.1-11.5-2.6-16.5c0.7-1.1,1.1-2.4,1.1-3.7c0-1.8-0.7-3.5-2-4.9c-1.3-1.3-3.1-2-4.9-2
		c-1.3,0-2.6,0.4-3.7,1.1c-5-2.7-10.8-3.5-16.5-2.6c-6.4,1-12.7,4.1-17.8,9.3c-5.1,5.1-8.3,11.4-9.3,17.8C-0.6,33.2,0.3,39,3,44
		c-0.6,1.1-1,2.3-1,3.5c0,1.8,0.7,3.5,2,4.9c1.3,1.3,3.1,2,4.9,2c1.2,0,2.4-0.3,3.5-1c5,2.7,10.8,3.5,16.6,2.6
		c6.4-1,12.7-4.1,17.8-9.3C51.9,41.6,55,35.3,56,28.9z M4.4,42.3L4.4,42.3L4.4,42.3L4.4,42.3z M28.2,51.1
		c-5.3,0.8-10.5-0.1-14.7-2.8l-1.8-1.2l-1.4,1.6c0,0.1-0.1,0.1-0.1,0.1c-0.4,0.3-0.8,0.5-1.3,0.5c-0.5,0-1-0.2-1.3-0.5
		C7.2,48.4,7,48,7,47.5c0-0.5,0.2-0.9,0.5-1.3c0,0,0.1-0.1,0.1-0.1l1.6-1.4l-1.2-1.8c-2.7-4.2-3.6-9.3-2.8-14.7
		c0.8-5.3,3.5-10.7,7.9-15.1c4.4-4.4,9.8-7,15.1-7.9c5.3-0.8,10.5,0.1,14.7,2.8l1.9,1.2l1.4-1.8c0.1-0.1,0.1-0.1,0.1-0.2
		c0.4-0.4,0.8-0.5,1.3-0.5c0.5,0,1,0.2,1.3,0.5c0.4,0.4,0.5,0.8,0.5,1.3c0,0.5-0.2,0.9-0.5,1.3l0,0c0,0-0.1,0.1-0.2,0.1L47,11.6
		l1.2,1.9c2.7,4.2,3.7,9.4,2.8,14.7c-0.8,5.3-3.5,10.7-7.9,15.1C38.8,47.6,33.5,50.2,28.2,51.1z"/>
	<path class="st0" d="M48.7,25.9c0.1-1.4-0.8-2.6-2.2-2.8c-1.4-0.1-2.6,0.8-2.8,2.2l0,0c-0.1,0.9-0.3,1.7-0.5,2.6
		c-0.9,3.3-2.8,6.8-5.7,9.7c-1,1-1,2.6,0,3.5c1,1,2.6,1,3.5,0c3.5-3.5,5.9-7.7,7-11.9C48.3,28.2,48.6,27,48.7,25.9z"/>
	<path class="st0" d="M40.7,15.5L40.7,15.5c0.9,0.9,1.7,2,2.2,3.3c0.5,1.3,2,1.9,3.3,1.3c1.3-0.5,1.9-2,1.3-3.3
		c-0.8-1.8-1.8-3.4-3.3-4.9c-1-1-2.6-1-3.5,0C39.7,13,39.7,14.6,40.7,15.5z"/>
	<path class="st0" d="M12.5,31.1c0.1-0.9,0.3-1.7,0.5-2.6c0.9-3.3,2.8-6.8,5.7-9.7c1-1,1-2.6,0-3.5c-1-1-2.6-1-3.5,0
		c-3.5,3.5-5.9,7.7-7,11.9c-0.3,1.1-0.5,2.2-0.6,3.4c-0.1,1.4,0.8,2.6,2.2,2.8C11.2,33.5,12.4,32.5,12.5,31.1L12.5,31.1z"/>
	<path class="st0" d="M15.6,41L15.6,41c-0.9-0.9-1.7-2-2.2-3.3c-0.5-1.3-2-1.9-3.3-1.3c-1.3,0.5-1.9,2-1.3,3.3
		c0.8,1.8,1.8,3.4,3.3,4.9c1,1,2.6,1,3.5,0C16.6,43.6,16.6,42,15.6,41z"/>
</g>
</svg>
