<!-- Generator: Adobe Illustrator 19.2.1, SVG Export Plug-In  -->
<svg version="1.1"
	 xmlns="http://www.w3.org/2000/svg" xmlns:xlink="http://www.w3.org/1999/xlink" xmlns:a="http://ns.adobe.com/AdobeSVGViewerExtensions/3.0/"
	 x="0px" y="0px" width="329.5px" height="40.4px" viewBox="0 0 329.5 40.4" style="enable-background:new 0 0 329.5 40.4;"
	 xml:space="preserve">
<style type="text/css">
	.st0{fill:#FBC02D;}
	.st1{fill:none;}
	.st2{fill:#FFF176;}
	.st3{fill:#FFF9C4;}
	.st4{fill:#F9A825;}
	.st5{fill:#FFEE58;}
	.st6{fill:#FDD835;}
	.st7{fill:#FFF59D;}
</style>
<defs>
</defs>
<g>
	<path class="st0" d="M53.8,14.6v-2.9h7l0.2,2.1c0.5-0.8,1.2-1.4,1.9-1.8s1.6-0.6,2.6-0.6c2.2,0,4,0.9,5.2,2.6
		c1.2,1.7,1.8,4,1.8,6.9v0.3c0,2.7-0.6,4.8-1.8,6.4c-1.2,1.6-2.9,2.4-5.2,2.4c-0.9,0-1.8-0.2-2.5-0.5c-0.7-0.3-1.4-0.9-1.9-1.5v5.2
		l2.3,0.5v2.9H54v-2.9l2.3-0.5v-18L53.8,14.6z M67.7,20.8c0-1.7-0.3-3.1-0.8-4.1c-0.6-1.1-1.4-1.6-2.6-1.6c-0.7,0-1.4,0.1-1.9,0.4
		c-0.5,0.3-0.9,0.7-1.2,1.3v7.9c0.3,0.5,0.7,0.9,1.2,1.2c0.5,0.3,1.1,0.4,1.9,0.4c1.2,0,2-0.5,2.6-1.4s0.8-2.2,0.8-3.7V20.8z"/>
	<path class="st0" d="M73.9,6.7V3.7h7.4v22.5l2.3,0.5v2.9h-9.5v-2.9l2.3-0.5V7.2L73.9,6.7z"/>
	<path class="st0" d="M93.9,30c-2.6,0-4.7-0.8-6.2-2.5c-1.6-1.7-2.3-3.8-2.3-6.3v-0.7c0-2.7,0.7-4.9,2.2-6.6
		c1.5-1.7,3.4-2.6,5.9-2.6c2.4,0,4.3,0.7,5.6,2.2c1.3,1.5,2,3.4,2,5.9v2.6H90.4l0,0.1c0.1,1.2,0.5,2.2,1.2,2.9
		c0.7,0.8,1.7,1.1,2.9,1.1c1.1,0,2-0.1,2.7-0.3c0.7-0.2,1.5-0.6,2.3-1l1.3,3c-0.7,0.6-1.7,1.1-2.9,1.5C96.6,29.8,95.3,30,93.9,30z
		 M93.4,15.1c-0.9,0-1.6,0.3-2.1,1c-0.5,0.7-0.8,1.6-1,2.7l0,0.1h5.9v-0.4c0-1-0.2-1.9-0.7-2.5C95.1,15.4,94.4,15.1,93.4,15.1z"/>
	<path class="st0" d="M114.8,29.7c-0.1-0.3-0.2-0.6-0.3-0.9c-0.1-0.3-0.2-0.6-0.2-1c-0.6,0.7-1.3,1.2-2.1,1.6
		c-0.8,0.4-1.8,0.6-2.8,0.6c-1.8,0-3.2-0.5-4.2-1.4c-1-1-1.6-2.3-1.6-3.9c0-1.7,0.7-3,2-3.9s3.3-1.4,5.9-1.4h2.5v-1.8
		c0-0.9-0.2-1.5-0.7-2c-0.5-0.5-1.2-0.7-2.2-0.7c-0.6,0-1,0.1-1.5,0.2s-0.8,0.3-1,0.5l-0.3,1.9h-3.7l0-4c0.9-0.6,1.9-1.1,3-1.5
		s2.4-0.6,3.7-0.6c2.2,0,4,0.5,5.4,1.6s2.1,2.6,2.1,4.7v7.4c0,0.3,0,0.5,0,0.8c0,0.2,0,0.5,0.1,0.7l1.5,0.2v2.9H114.8z M110.6,26.4
		c0.7,0,1.4-0.2,2-0.5c0.6-0.3,1.1-0.7,1.4-1.2V22h-2.5c-1,0-1.8,0.2-2.3,0.7s-0.8,1.1-0.8,1.7c0,0.6,0.2,1.1,0.6,1.4
		C109.4,26.2,109.9,26.4,110.6,26.4z"/>
	<path class="st0" d="M136.8,17.9h-3.3l-0.5-2.2c-0.3-0.3-0.8-0.5-1.3-0.7c-0.5-0.2-1.1-0.3-1.7-0.3c-0.9,0-1.5,0.2-2,0.6
		s-0.7,0.9-0.7,1.4c0,0.5,0.2,1,0.7,1.4c0.5,0.4,1.4,0.7,2.9,1c2.2,0.4,3.9,1.1,5,2c1.1,0.9,1.6,2,1.6,3.5c0,1.6-0.7,2.9-2.1,4
		c-1.4,1-3.2,1.5-5.5,1.5c-1.4,0-2.7-0.2-3.8-0.6c-1.2-0.4-2.2-1-3.1-1.7l0-4h3.4L127,26c0.3,0.2,0.7,0.4,1.2,0.5s1,0.2,1.6,0.2
		c1,0,1.7-0.2,2.3-0.5c0.5-0.4,0.8-0.8,0.8-1.4c0-0.5-0.3-1-0.8-1.4c-0.5-0.4-1.5-0.7-2.9-1c-2.1-0.4-3.7-1.1-4.8-1.9
		s-1.6-2-1.6-3.5c0-1.5,0.6-2.8,1.9-3.9c1.2-1.1,3-1.6,5.3-1.6c1.4,0,2.7,0.2,4,0.6c1.2,0.4,2.2,0.9,2.9,1.4L136.8,17.9z"/>
	<path class="st0" d="M148.2,30c-2.6,0-4.7-0.8-6.2-2.5c-1.6-1.7-2.3-3.8-2.3-6.3v-0.7c0-2.7,0.7-4.9,2.2-6.6
		c1.5-1.7,3.4-2.6,5.9-2.6c2.4,0,4.3,0.7,5.6,2.2c1.3,1.5,2,3.4,2,5.9v2.6h-10.7l0,0.1c0.1,1.2,0.5,2.2,1.2,2.9
		c0.7,0.8,1.7,1.1,2.9,1.1c1.1,0,2-0.1,2.7-0.3c0.7-0.2,1.5-0.6,2.3-1l1.3,3c-0.7,0.6-1.7,1.1-2.9,1.5C151,29.8,149.7,30,148.2,30z
		 M147.8,15.1c-0.9,0-1.6,0.3-2.1,1c-0.5,0.7-0.8,1.6-1,2.7l0,0.1h5.9v-0.4c0-1-0.2-1.9-0.7-2.5C149.5,15.4,148.8,15.1,147.8,15.1z"
		/>
	<path class="st0" d="M172.4,17.9h-3.3l-0.5-2.2c-0.3-0.3-0.8-0.5-1.3-0.7c-0.5-0.2-1.1-0.3-1.7-0.3c-0.9,0-1.5,0.2-2,0.6
		s-0.7,0.9-0.7,1.4c0,0.5,0.2,1,0.7,1.4c0.5,0.4,1.4,0.7,2.9,1c2.2,0.4,3.9,1.1,5,2c1.1,0.9,1.6,2,1.6,3.5c0,1.6-0.7,2.9-2.1,4
		c-1.4,1-3.2,1.5-5.5,1.5c-1.4,0-2.7-0.2-3.8-0.6c-1.2-0.4-2.2-1-3.1-1.7l0-4h3.4l0.7,2.3c0.3,0.2,0.7,0.4,1.2,0.5s1,0.2,1.6,0.2
		c1,0,1.7-0.2,2.3-0.5c0.5-0.4,0.8-0.8,0.8-1.4c0-0.5-0.3-1-0.8-1.4c-0.5-0.4-1.5-0.7-2.9-1c-2.1-0.4-3.7-1.1-4.8-1.9
		s-1.6-2-1.6-3.5c0-1.5,0.6-2.8,1.9-3.9c1.2-1.1,3-1.6,5.3-1.6c1.4,0,2.7,0.2,4,0.6c1.2,0.4,2.2,0.9,2.9,1.4L172.4,17.9z"/>
	<path class="st0" d="M175.3,20.8c0-2.8,0.6-5.1,1.8-6.9c1.2-1.7,3-2.6,5.2-2.6c1,0,1.8,0.2,2.6,0.6c0.8,0.4,1.4,1,1.9,1.8l0.4-2.2
		h4.2v21.5l2.3,0.5v2.9h-9.5v-2.9l2.3-0.5V28c-0.5,0.7-1.2,1.2-1.9,1.5c-0.7,0.3-1.5,0.5-2.4,0.5c-2.2,0-3.9-0.8-5.2-2.4
		c-1.2-1.6-1.8-3.8-1.8-6.4V20.8z M180.2,21.2c0,1.6,0.3,2.8,0.8,3.7c0.5,0.9,1.4,1.4,2.6,1.4c0.7,0,1.3-0.1,1.8-0.4
		c0.5-0.3,0.9-0.6,1.2-1.2v-8c-0.3-0.5-0.7-0.9-1.2-1.2c-0.5-0.3-1.1-0.4-1.8-0.4c-1.2,0-2,0.5-2.6,1.6s-0.8,2.4-0.8,4.1V21.2z"/>
	<path class="st0" d="M207,27.4c-0.6,0.8-1.3,1.5-2.1,1.9c-0.8,0.5-1.8,0.7-2.9,0.7c-1.9,0-3.4-0.6-4.5-1.8
		c-1.1-1.2-1.6-3.1-1.6-5.7v-7.4l-2-0.5v-2.9h2h4.9v10.9c0,1.3,0.2,2.2,0.7,2.8c0.4,0.6,1.1,0.9,2,0.9c0.8,0,1.4-0.1,2-0.4
		c0.6-0.2,1-0.6,1.4-1.1v-9.7l-2.1-0.5v-2.9h2.1h4.9v14.6l2.2,0.5v2.9h-6.4L207,27.4z"/>
	<path class="st0" d="M227.1,29.7c-0.1-0.3-0.2-0.6-0.3-0.9c-0.1-0.3-0.2-0.6-0.2-1c-0.6,0.7-1.3,1.2-2.1,1.6
		c-0.8,0.4-1.8,0.6-2.8,0.6c-1.8,0-3.2-0.5-4.2-1.4c-1-1-1.6-2.3-1.6-3.9c0-1.7,0.7-3,2-3.9s3.3-1.4,5.9-1.4h2.5v-1.8
		c0-0.9-0.2-1.5-0.7-2c-0.5-0.5-1.2-0.7-2.2-0.7c-0.6,0-1,0.1-1.5,0.2s-0.8,0.3-1,0.5l-0.3,1.9h-3.7l0-4c0.9-0.6,1.9-1.1,3-1.5
		s2.4-0.6,3.7-0.6c2.2,0,4,0.5,5.4,1.6s2.1,2.6,2.1,4.7v7.4c0,0.3,0,0.5,0,0.8c0,0.2,0,0.5,0.1,0.7l1.5,0.2v2.9H227.1z M222.9,26.4
		c0.7,0,1.4-0.2,2-0.5c0.6-0.3,1.1-0.7,1.4-1.2V22h-2.5c-1,0-1.8,0.2-2.3,0.7s-0.8,1.1-0.8,1.7c0,0.6,0.2,1.1,0.6,1.4
		C221.7,26.2,222.2,26.4,222.9,26.4z"/>
	<path class="st0" d="M249,17.9h-3.3l-0.5-2.2c-0.3-0.3-0.8-0.5-1.3-0.7c-0.5-0.2-1.1-0.3-1.7-0.3c-0.9,0-1.5,0.2-2,0.6
		s-0.7,0.9-0.7,1.4c0,0.5,0.2,1,0.7,1.4c0.5,0.4,1.4,0.7,2.9,1c2.2,0.4,3.9,1.1,5,2c1.1,0.9,1.6,2,1.6,3.5c0,1.6-0.7,2.9-2.1,4
		c-1.4,1-3.2,1.5-5.5,1.5c-1.4,0-2.7-0.2-3.8-0.6c-1.2-0.4-2.2-1-3.1-1.7l0-4h3.4l0.7,2.3c0.3,0.2,0.7,0.4,1.2,0.5s1,0.2,1.6,0.2
		c1,0,1.7-0.2,2.3-0.5c0.5-0.4,0.8-0.8,0.8-1.4c0-0.5-0.3-1-0.8-1.4c-0.5-0.4-1.5-0.7-2.9-1c-2.1-0.4-3.7-1.1-4.8-1.9
		s-1.6-2-1.6-3.5c0-1.5,0.6-2.8,1.9-3.9c1.2-1.1,3-1.6,5.3-1.6c1.4,0,2.7,0.2,4,0.6c1.2,0.4,2.2,0.9,2.9,1.4L249,17.9z"/>
	<path class="st0" d="M251.6,26.7l2.3-0.5V7.2l-2.6-0.5V3.7h7.4V14c0.6-0.8,1.3-1.5,2.1-1.9c0.8-0.5,1.7-0.7,2.7-0.7
		c1.9,0,3.4,0.6,4.4,1.9c1.1,1.2,1.6,3.2,1.6,5.8v7.3l2.3,0.5v2.9h-9.3v-2.9l2.1-0.5V19c0-1.4-0.2-2.4-0.7-3
		c-0.5-0.6-1.2-0.9-2.2-0.9c-0.7,0-1.3,0.1-1.8,0.4c-0.5,0.2-0.9,0.6-1.3,1v9.7l2.1,0.5v2.9h-9.3V26.7z"/>
	<path class="st0" d="M279.4,29.7h-4.8v-4.3h4.8V29.7z"/>
	<path class="st0" d="M281.6,14.6v-2.9h7.1l0.2,2.4c0.6-0.9,1.3-1.5,2.2-2s1.9-0.7,3-0.7c1.2,0,2.1,0.3,3,0.8
		c0.8,0.5,1.4,1.3,1.9,2.3c0.6-1,1.3-1.7,2.2-2.3c0.9-0.5,1.9-0.8,3.1-0.8c1.8,0,3.2,0.6,4.2,1.8c1,1.2,1.5,3.1,1.5,5.6v7.5l2.3,0.5
		v2.9H303v-2.9l2.1-0.5v-7.5c0-1.4-0.2-2.3-0.7-2.8c-0.4-0.5-1.1-0.8-2-0.8c-0.7,0-1.3,0.2-1.8,0.5c-0.5,0.3-0.9,0.7-1.2,1.3
		c0,0.2,0,0.4,0,0.5c0,0.1,0,0.3,0,0.5v8.4l2,0.5v2.9h-8.8v-2.9l2-0.5v-7.5c0-1.3-0.2-2.3-0.7-2.8c-0.4-0.5-1.1-0.8-2-0.8
		c-0.7,0-1.2,0.1-1.7,0.4c-0.5,0.2-0.9,0.6-1.2,1.1v9.7l2.1,0.5v2.9h-9.3v-2.9l2.3-0.5V15.1L281.6,14.6z"/>
	<path class="st0" d="M322.3,30c-2.6,0-4.7-0.8-6.2-2.5c-1.6-1.7-2.3-3.8-2.3-6.3v-0.7c0-2.7,0.7-4.9,2.2-6.6
		c1.5-1.7,3.4-2.6,5.9-2.6c2.4,0,4.3,0.7,5.6,2.2c1.3,1.5,2,3.4,2,5.9v2.6h-10.7l0,0.1c0.1,1.2,0.5,2.2,1.2,2.9
		c0.7,0.8,1.7,1.1,2.9,1.1c1.1,0,2-0.1,2.7-0.3c0.7-0.2,1.5-0.6,2.3-1l1.3,3c-0.7,0.6-1.7,1.1-2.9,1.5C325,29.8,323.7,30,322.3,30z
		 M321.8,15.1c-0.9,0-1.6,0.3-2.1,1c-0.5,0.7-0.8,1.6-1,2.7l0,0.1h5.9v-0.4c0-1-0.2-1.9-0.7-2.5C323.6,15.4,322.8,15.1,321.8,15.1z"
		/>
</g>
<g>
	<path class="st1" d="M6.2,35.3c0.9,0.8,1.8,1.5,2.8,2.1c-1-0.7-1.9-1.4-2.7-2.2L6.2,35.3z"/>
	<path class="st1" d="M5,6.7c-0.9,1-1.7,2.2-2.4,3.5C3.3,8.9,4.1,7.7,5,6.7L5,6.7z"/>
	<path class="st1" d="M0.6,15.3c-0.3,1.3-0.6,2.8-0.6,3.8h0C0.1,17.1,0.3,16.6,0.6,15.3z"/>
	<path class="st1" d="M6.2,5.1l0.1,0.1C7.2,4.4,8.1,3.7,9.1,3C8.1,3.6,7.1,4.3,6.2,5.1z"/>
	<path class="st1" d="M0,21.1c0,1,0.1,1.3,0.3,2C0.1,22.5,0.1,22.1,0,21.1L0,21.1z"/>
	<path class="st2" d="M20.8,0v17.4L33.1,5.1C29.8,2.1,25.8,0.3,20.8,0z"/>
	<path class="st3" d="M35.3,33.6C35.3,33.6,35.3,33.6,35.3,33.6L35.3,33.6c3-3.3,4.9-7.4,5.1-12.4H23L35.3,33.6z"/>
	<path class="st4" d="M20.8,40.4c5-0.3,9-2.1,12.3-5.1L20.8,23V40.4z"/>
	<path class="st0" d="M0,21.1c0,1,0.1,1.5,0.2,2.2c0.6,3.7,2.3,7.5,4.8,10.3l0,0c0,0,0-0.1,0-0.1l12.3-12.4H0z"/>
	<path class="st5" d="M6.5,5.2l12.3,12.2V0c-3,0.2-6.6,1.3-9.6,3C8.3,3.7,7.3,4.4,6.5,5.2z"/>
	<path class="st6" d="M17.4,19.1L5.2,6.8c0,0-0.1,0-0.1,0L5,6.7c-0.9,1.1-1.7,2.2-2.4,3.4c-0.1,0.1-0.1,0.2-0.2,0.3
		c-0.1,0.2-0.2,0.4-0.3,0.7c-0.2,0.4-0.4,0.8-0.5,1.2c-0.1,0.1-0.1,0.3-0.2,0.4c-0.1,0.3-0.3,0.7-0.4,1c-0.1,0.4-0.2,0.8-0.3,1.1
		c0,0.1,0,0.3-0.1,0.4c-0.3,1.2-0.5,2-0.6,4H17.4z"/>
	<path class="st7" d="M40.4,19.1c-0.3-4-2.1-9-5-12.3l-0.1,0c0,0,0,0.1-0.1,0.1L23,19.1H40.4z"/>
	<path class="st0" d="M9.2,37.4c2.9,1.8,6.6,2.8,9.6,3V23L6.6,35.2C7.4,36,8.2,36.7,9.2,37.4z"/>
</g>
</svg>
