<svg id="Warstwa_1" data-name="Warstwa 1" xmlns="http://www.w3.org/2000/svg" viewBox="0 0 153 153"><defs><style>.cls-1,.cls-2{fill:none;stroke:#ab47bc;stroke-width:3px;}.cls-1{stroke-miterlimit:10;}.cls-2{stroke-linecap:round;stroke-linejoin:round;}</style></defs><title>01</title><circle class="cls-1" cx="53.5" cy="83.95" r="5"/><circle class="cls-1" cx="48.5" cy="74.95" r="5"/><circle class="cls-1" cx="43.5" cy="64.95" r="5"/><circle class="cls-1" cx="58.5" cy="74.95" r="5"/><circle class="cls-1" cx="53.5" cy="64.95" r="5"/><circle class="cls-1" cx="63.5" cy="64.95" r="5"/><path class="cls-2" d="M784.5,802v-8.78a5.13,5.13,0,0,1,5.5-5.42c5.75,0,4.71,5,4.71,5" transform="translate(-731.33 -742.28)"/><path class="cls-2" d="M769.94,791.26l3.92-1.57s-3.79-4.31-1.83-6.27,6,2.09,6,2.09l1.57-4.18s8.23,7.18,3,12.41C776.47,799.88,769.94,791.26,769.94,791.26Z" transform="translate(-731.33 -742.28)"/><circle class="cls-1" cx="99.5" cy="108.95" r="5"/><circle class="cls-1" cx="94.5" cy="99.95" r="5"/><circle class="cls-1" cx="89.5" cy="89.95" r="5"/><circle class="cls-1" cx="104.5" cy="99.95" r="5"/><circle class="cls-1" cx="99.5" cy="89.95" r="5"/><circle class="cls-1" cx="109.5" cy="89.95" r="5"/><path class="cls-2" d="M830.5,827v-8.78a5.13,5.13,0,0,1,5.5-5.42c5.75,0,4.71,5,4.71,5" transform="translate(-731.33 -742.28)"/><path class="cls-2" d="M815.94,816.26l3.92-1.57s-3.79-4.31-1.83-6.27,6,2.09,6,2.09l1.57-4.18s8.23,7.18,3,12.41C822.47,824.88,815.94,816.26,815.94,816.26Z" transform="translate(-731.33 -742.28)"/><circle class="cls-2" cx="76.5" cy="76.5" r="75"/></svg>
