<svg id="Warstwa_1" data-name="Warstwa 1" xmlns="http://www.w3.org/2000/svg" viewBox="0 0 153 153"><defs><style>.cls-1,.cls-2,.cls-3,.cls-4{fill:none;stroke:#ab47bc;}.cls-1,.cls-2{stroke-miterlimit:10;}.cls-1,.cls-2,.cls-3{stroke-width:3px;}.cls-2,.cls-3,.cls-4{stroke-linecap:round;}.cls-3,.cls-4{stroke-linejoin:round;}.cls-4{stroke-width:2px;}</style></defs><title>02</title><circle class="cls-1" cx="69.75" cy="102.61" r="5"/><circle class="cls-1" cx="55.46" cy="102.17" r="5"/><circle class="cls-1" cx="44.4" cy="99.72" r="5"/><circle class="cls-1" cx="87.14" cy="102.17" r="5"/><circle class="cls-1" cx="78.5" cy="95.49" r="5"/><circle class="cls-1" cx="112.07" cy="99.72" r="5"/><circle class="cls-1" cx="98.67" cy="101.17" r="5"/><path class="cls-2" d="M1164.64,784.89l-4.42,50.61H1133s2.26-10.5,15.31-10.5l-5-32.5" transform="translate(-1094.36 -742.28)"/><path class="cls-2" d="M1172,779.5l3.76,43H1203s-2.26-10.5-15.31-10.5l5-32.5" transform="translate(-1094.36 -742.28)"/><circle class="cls-3" cx="76.5" cy="76.5" r="75"/><path class="cls-2" d="M1223.84,840.5l-7.77,22s-9.07,8.76-45.07,8.76-45-8.76-45-8.76l-7.52-22" transform="translate(-1094.36 -742.28)"/><path class="cls-2" d="M1222.84,841.5s-10.41,8.76-51.72,8.76-51.64-8.76-51.64-8.76" transform="translate(-1094.36 -742.28)"/><path class="cls-2" d="M1132.15,835.26c-9.57,2.38-12.67,5-12.67,5" transform="translate(-1094.36 -742.28)"/><path class="cls-2" d="M1222.84,840.26s-10.41-8.76-51.72-8.76q-5.09,0-9.56.17" transform="translate(-1094.36 -742.28)"/><path class="cls-2" d="M1221.26,846.5s-10.1,8.76-50.17,8.76S1121,846.5,1121,846.5" transform="translate(-1094.36 -742.28)"/><path class="cls-4" d="M1138,811.82c0.76,1.4.27,6.53,0.27,6.53s-4.57-2.39-5.33-3.78A2.88,2.88,0,1,1,1138,811.82Z" transform="translate(-1094.36 -742.28)"/><path class="cls-4" d="M1127.82,818.48c1.33,0.87,3.33,5.63,3.33,5.63s-5.16.06-6.49-.81A2.88,2.88,0,1,1,1127.82,818.48Z" transform="translate(-1094.36 -742.28)"/><path class="cls-4" d="M1128.34,808.41c0.54,1,.19,4.64.19,4.64s-3.25-1.69-3.79-2.69A2,2,0,1,1,1128.34,808.41Z" transform="translate(-1094.36 -742.28)"/><path class="cls-4" d="M1119.66,825.4c1.11,0.22,3.69,2.82,3.69,2.82s-3.38,1.41-4.49,1.19A2,2,0,1,1,1119.66,825.4Z" transform="translate(-1094.36 -742.28)"/><line class="cls-4" x1="42.43" y1="110.04" x2="44.4" y2="125.69"/><line class="cls-4" x1="108.43" y1="125.69" x2="110.4" y2="110.04"/><line class="cls-4" x1="60.46" y1="112.44" x2="61.61" y2="128.41"/><line class="cls-4" x1="92.61" y1="112.44" x2="91.46" y2="128.41"/><line class="cls-4" x1="76.64" y1="112.72" x2="76.64" y2="128.72"/></svg>
