<svg id="Warstwa_1" data-name="Warstwa 1" xmlns="http://www.w3.org/2000/svg" viewBox="0 0 153 153"><defs><style>.cls-1,.cls-2,.cls-3,.cls-4{fill:none;stroke:#ab47bc;}.cls-1,.cls-2,.cls-3{stroke-miterlimit:10;}.cls-1,.cls-2,.cls-4{stroke-width:3px;}.cls-2,.cls-4{stroke-linecap:round;}.cls-3{stroke-width:2px;}.cls-4{stroke-linejoin:round;}</style></defs><title>03</title><path class="cls-1" d="M1547.5,799V776.22a5.48,5.48,0,0,0,2-4h0a4.74,4.74,0,0,0-4.73-4.77h-5.62a4.92,4.92,0,0,0-4.93,4.77h0c0,1.64.28,3.09,2.28,4V799c-6,2.21-10,6-10,12.45v47.16c0,8.35,7.49,12.66,15.84,12.66h0c8.35,0,14.16-4.3,14.16-12.66V811.45C1556.5,805,1552.5,801.21,1547.5,799Z" transform="translate(-1453.37 -743.01)"/><path class="cls-2" d="M1531.07,811.14s3.77,2,10.8,2" transform="translate(-1453.37 -743.01)"/><path class="cls-2" d="M1536.81,776.22a16.92,16.92,0,0,0,5.06.68" transform="translate(-1453.37 -743.01)"/><path class="cls-2" d="M1536.81,798.85a16.92,16.92,0,0,0,5.06.68" transform="translate(-1453.37 -743.01)"/><circle class="cls-3" cx="88.5" cy="98.65" r="2.76"/><circle class="cls-3" cx="85.74" cy="93.68" r="2.76"/><circle class="cls-3" cx="82.97" cy="88.15" r="2.76"/><circle class="cls-3" cx="91.26" cy="93.68" r="2.76"/><circle class="cls-3" cx="88.5" cy="88.15" r="2.76"/><circle class="cls-3" cx="94.03" cy="88.15" r="2.76"/><path class="cls-3" d="M1526.68,818.74a32.27,32.27,0,0,0,30.37,0" transform="translate(-1453.37 -743.01)"/><path class="cls-3" d="M1526.68,850a32.27,32.27,0,0,0,30.37,0" transform="translate(-1453.37 -743.01)"/><path class="cls-3" d="M1526.68,854.18a32.27,32.27,0,0,0,30.37,0" transform="translate(-1453.37 -743.01)"/><circle class="cls-4" cx="76.5" cy="76.5" r="75"/><ellipse class="cls-2" cx="52.02" cy="54.11" rx="12.25" ry="2.63"/><path class="cls-2" d="M1493,797.14s-13,24.44,10.5,26V850" transform="translate(-1453.37 -743.01)"/><path class="cls-2" d="M1518,797.14s12.5,24.44-10.5,26V850" transform="translate(-1453.37 -743.01)"/><path class="cls-2" d="M1508.66,846.29c5.89,0.45,10.27,2.15,10.27,4.17,0,2.37-6,4.29-13.37,4.29s-13.37-1.92-13.37-4.29c0-2,4.49-3.76,10.49-4.19" transform="translate(-1453.37 -743.01)"/><ellipse class="cls-2" cx="52.19" cy="66.68" rx="11.74" ry="1.69"/><path class="cls-2" d="M1494,809.69s-2.15,9.31,11.24,9.31,12.25-9.31,12.25-9.31" transform="translate(-1453.37 -743.01)"/></svg>
