<svg id="Warstwa_1" data-name="Warstwa 1" xmlns="http://www.w3.org/2000/svg" viewBox="0 0 899 104.89"><defs><style>.cls-1,.cls-2{fill:none;stroke:#ab47bc;stroke-width:3px;}.cls-1{stroke-miterlimit:10;}.cls-2{stroke-linecap:round;stroke-linejoin:round;}</style></defs><title>04</title><circle class="cls-1" cx="332.5" cy="56.39" r="5"/><circle class="cls-1" cx="327.5" cy="47.39" r="5"/><circle class="cls-1" cx="322.5" cy="37.39" r="5"/><circle class="cls-1" cx="337.5" cy="47.39" r="5"/><circle class="cls-1" cx="332.5" cy="37.39" r="5"/><circle class="cls-1" cx="342.5" cy="37.39" r="5"/><path class="cls-2" d="M407.17,760.55v-8.32a5,5,0,0,1,5.41-5.42c5.75,0,4.75,4.74,4.75,4.74" transform="translate(-74.82 -728.83)"/><path class="cls-2" d="M392.43,750.26l3.92-1.57s-3.79-4.31-1.83-6.27,6,2.09,6,2.09l1.57-4.18s8.23,7.18,3,12.41C399,758.88,392.43,750.26,392.43,750.26Z" transform="translate(-74.82 -728.83)"/><circle class="cls-1" cx="56.5" cy="46.39" r="5"/><circle class="cls-1" cx="51.5" cy="37.39" r="5"/><circle class="cls-1" cx="46.5" cy="27.39" r="5"/><circle class="cls-1" cx="61.5" cy="37.39" r="5"/><circle class="cls-1" cx="56.5" cy="27.39" r="5"/><circle class="cls-1" cx="66.5" cy="27.39" r="5"/><path class="cls-2" d="M131.17,750.55v-8.32a5,5,0,0,1,5.41-5.42c5.75,0,4.75,4.74,4.75,4.74" transform="translate(-74.82 -728.83)"/><path class="cls-2" d="M116.43,740.26l3.92-1.57s-3.79-4.31-1.83-6.27,6,2.09,6,2.09l1.57-4.18s8.23,7.18,3,12.41C123,748.88,116.43,740.26,116.43,740.26Z" transform="translate(-74.82 -728.83)"/><circle class="cls-1" cx="16.5" cy="80.39" r="5"/><circle class="cls-1" cx="11.5" cy="71.39" r="5"/><circle class="cls-1" cx="6.5" cy="61.39" r="5"/><circle class="cls-1" cx="21.5" cy="71.39" r="5"/><circle class="cls-1" cx="16.5" cy="61.39" r="5"/><circle class="cls-1" cx="26.5" cy="61.39" r="5"/><path class="cls-2" d="M91.17,784.55v-8.32a5,5,0,0,1,5.41-5.42c5.75,0,4.75,4.74,4.75,4.74" transform="translate(-74.82 -728.83)"/><path class="cls-2" d="M76.43,774.26l3.92-1.57s-3.79-4.31-1.83-6.27,6,2.09,6,2.09l1.57-4.18s8.23,7.18,3,12.41C83,782.88,76.43,774.26,76.43,774.26Z" transform="translate(-74.82 -728.83)"/><circle class="cls-1" cx="378.5" cy="81.39" r="5"/><circle class="cls-1" cx="373.5" cy="72.39" r="5"/><circle class="cls-1" cx="368.5" cy="62.39" r="5"/><circle class="cls-1" cx="383.5" cy="72.39" r="5"/><circle class="cls-1" cx="378.5" cy="62.39" r="5"/><circle class="cls-1" cx="388.5" cy="62.39" r="5"/><path class="cls-2" d="M453.17,785.55v-8.32a5,5,0,0,1,5.41-5.42c5.75,0,4.75,4.74,4.75,4.74" transform="translate(-74.82 -728.83)"/><path class="cls-2" d="M438.43,775.26l3.92-1.57s-3.79-4.31-1.83-6.27,6,2.09,6,2.09l1.57-4.18s8.23,7.18,3,12.41C445,783.88,438.43,775.26,438.43,775.26Z" transform="translate(-74.82 -728.83)"/><circle class="cls-1" cx="504.5" cy="67.39" r="5"/><circle class="cls-1" cx="499.5" cy="58.39" r="5"/><circle class="cls-1" cx="494.5" cy="48.39" r="5"/><circle class="cls-1" cx="509.5" cy="58.39" r="5"/><circle class="cls-1" cx="504.5" cy="48.39" r="5"/><circle class="cls-1" cx="514.5" cy="48.39" r="5"/><path class="cls-2" d="M579.17,771.55v-8.32a5,5,0,0,1,5.41-5.42c5.75,0,4.75,4.74,4.75,4.74" transform="translate(-74.82 -728.83)"/><path class="cls-2" d="M564.43,761.26l3.92-1.57s-3.79-4.31-1.83-6.27,6,2.09,6,2.09l1.57-4.18s8.23,7.18,3,12.41C571,769.88,564.43,761.26,564.43,761.26Z" transform="translate(-74.82 -728.83)"/><circle class="cls-1" cx="606.5" cy="92.39" r="5"/><circle class="cls-1" cx="601.5" cy="83.39" r="5"/><circle class="cls-1" cx="596.5" cy="73.39" r="5"/><circle class="cls-1" cx="611.5" cy="83.39" r="5"/><circle class="cls-1" cx="606.5" cy="73.39" r="5"/><circle class="cls-1" cx="616.5" cy="73.39" r="5"/><path class="cls-2" d="M681.17,796.55v-8.32a5,5,0,0,1,5.41-5.42c5.75,0,4.75,4.74,4.75,4.74" transform="translate(-74.82 -728.83)"/><path class="cls-2" d="M666.43,786.26l3.92-1.57s-3.79-4.31-1.83-6.27,6,2.09,6,2.09l1.57-4.18s8.23,7.18,3,12.41C673,794.88,666.43,786.26,666.43,786.26Z" transform="translate(-74.82 -728.83)"/><circle class="cls-1" cx="764.5" cy="98.39" r="5"/><circle class="cls-1" cx="759.5" cy="89.39" r="5"/><circle class="cls-1" cx="754.5" cy="79.39" r="5"/><circle class="cls-1" cx="769.5" cy="89.39" r="5"/><circle class="cls-1" cx="764.5" cy="79.39" r="5"/><circle class="cls-1" cx="774.5" cy="79.39" r="5"/><path class="cls-2" d="M839.17,802.55v-8.32a5,5,0,0,1,5.41-5.42c5.75,0,4.75,4.74,4.75,4.74" transform="translate(-74.82 -728.83)"/><path class="cls-2" d="M824.43,792.26l3.92-1.57s-3.79-4.31-1.83-6.27,6,2.09,6,2.09l1.57-4.18s8.23,7.18,3,12.41C831,800.88,824.43,792.26,824.43,792.26Z" transform="translate(-74.82 -728.83)"/><circle class="cls-1" cx="882.5" cy="57.39" r="5"/><circle class="cls-1" cx="877.5" cy="48.39" r="5"/><circle class="cls-1" cx="872.5" cy="38.39" r="5"/><circle class="cls-1" cx="887.5" cy="48.39" r="5"/><circle class="cls-1" cx="882.5" cy="38.39" r="5"/><circle class="cls-1" cx="892.5" cy="38.39" r="5"/><path class="cls-2" d="M957.17,761.55v-8.32a5,5,0,0,1,5.41-5.42c5.75,0,4.75,4.74,4.75,4.74" transform="translate(-74.82 -728.83)"/><path class="cls-2" d="M942.43,751.26l3.92-1.57s-3.79-4.31-1.83-6.27,6,2.09,6,2.09l1.57-4.18s8.23,7.18,3,12.41C949,759.88,942.43,751.26,942.43,751.26Z" transform="translate(-74.82 -728.83)"/><circle class="cls-1" cx="648.5" cy="67.39" r="5"/><circle class="cls-1" cx="643.5" cy="58.39" r="5"/><circle class="cls-1" cx="638.5" cy="48.39" r="5"/><circle class="cls-1" cx="653.5" cy="58.39" r="5"/><circle class="cls-1" cx="648.5" cy="48.39" r="5"/><circle class="cls-1" cx="658.5" cy="48.39" r="5"/><path class="cls-2" d="M723.17,771.55v-8.32a5,5,0,0,1,5.41-5.42c5.75,0,4.75,4.74,4.75,4.74" transform="translate(-74.82 -728.83)"/><path class="cls-2" d="M708.43,761.26l3.92-1.57s-3.79-4.31-1.83-6.27,6,2.09,6,2.09l1.57-4.18s8.23,7.18,3,12.41C715,769.88,708.43,761.26,708.43,761.26Z" transform="translate(-74.82 -728.83)"/><circle class="cls-1" cx="150.5" cy="89.39" r="5"/><circle class="cls-1" cx="145.5" cy="80.39" r="5"/><circle class="cls-1" cx="140.5" cy="70.39" r="5"/><circle class="cls-1" cx="155.5" cy="80.39" r="5"/><circle class="cls-1" cx="150.5" cy="70.39" r="5"/><circle class="cls-1" cx="160.5" cy="70.39" r="5"/><path class="cls-2" d="M225.17,793.55v-8.32a5,5,0,0,1,5.41-5.42c5.75,0,4.75,4.74,4.75,4.74" transform="translate(-74.82 -728.83)"/><path class="cls-2" d="M210.43,783.26l3.92-1.57s-3.79-4.31-1.83-6.27,6,2.09,6,2.09l1.57-4.18s8.23,7.18,3,12.41C217,791.88,210.43,783.26,210.43,783.26Z" transform="translate(-74.82 -728.83)"/></svg>