<svg id="Warstwa_1" data-name="Warstwa 1" xmlns="http://www.w3.org/2000/svg" viewBox="0 0 101.78 99.26"><defs><style>.cls-1,.cls-2{fill:#263238;}.cls-1{fill-rule:evenodd;}</style></defs><title>github</title><path class="cls-1" d="M1381,57a50.89,50.89,0,0,0-16.09,99.17c2.54,0.47,3.48-1.1,3.48-2.45s0-5.22-.07-9.47c-14.16,3.08-17.14-6-17.14-6-2.31-5.88-5.65-7.45-5.65-7.45-4.62-3.16.35-3.09,0.35-3.09,5.11,0.36,7.8,5.24,7.8,5.24,4.54,7.78,11.9,5.53,14.81,4.23a10.84,10.84,0,0,1,3.23-6.8c-11.3-1.29-23.19-5.65-23.19-25.15a19.69,19.69,0,0,1,5.24-13.66c-0.53-1.28-2.27-6.46.49-13.47,0,0,4.27-1.37,14,5.22a48.25,48.25,0,0,1,25.49,0c9.71-6.58,14-5.22,14-5.22,2.77,7,1,12.19.5,13.47a19.66,19.66,0,0,1,5.24,13.66c0,19.55-11.9,23.85-23.24,25.11,1.83,1.58,3.45,4.68,3.45,9.42,0,6.81-.06,12.29-0.06,14,0,1.35.92,2.94,3.49,2.44A50.89,50.89,0,0,0,1381,57Z" transform="translate(-1330.13 -56.95)"/><path class="cls-2" d="M1349.41,130a0.78,0.78,0,1,1-.45-0.77,0.64,0.64,0,0,1,.45.77h0Zm-0.63-.46" transform="translate(-1330.13 -56.95)"/><path class="cls-2" d="M1351.47,132.31a0.94,0.94,0,1,1-.14-1.06,0.77,0.77,0,0,1,.14,1.06h0Zm-0.49-.52" transform="translate(-1330.13 -56.95)"/><path class="cls-2" d="M1353.47,135.24a0.9,0.9,0,0,1-1.14-.44,0.88,0.88,0,0,1,0-1.21,1.07,1.07,0,0,1,1.13,1.65h0Zm0,0" transform="translate(-1330.13 -56.95)"/><path class="cls-2" d="M1356.22,138.07a1,1,0,0,1-1.31-.2,0.81,0.81,0,1,1,1-1.11,1,1,0,0,1,.28,1.3h0Zm0,0" transform="translate(-1330.13 -56.95)"/><path class="cls-2" d="M1360,139.72a1.18,1.18,0,0,1-2.11-.63,1.18,1.18,0,0,1,2.11.63h0Zm0,0" transform="translate(-1330.13 -56.95)"/><path class="cls-2" d="M1364.18,140a1.17,1.17,0,0,1-2.19,0,1,1,0,0,1,1.09-.78,1,1,0,0,1,1.1.74h0Zm0,0" transform="translate(-1330.13 -56.95)"/><path class="cls-2" d="M1368.05,139.36a1.17,1.17,0,1,1-1.22-.56,1,1,0,0,1,1.22.56h0Zm0,0" transform="translate(-1330.13 -56.95)"/></svg>
