<svg id="Warstwa_1" data-name="Warstwa 1" xmlns="http://www.w3.org/2000/svg" viewBox="0 0 269.4 32.23"><defs><style>.cls-1{fill:#263238;}.cls-2{fill:#ab47bc;}</style></defs><title>pleasesquash01</title><path class="cls-1" d="M58.8,424.59V404.25h1.6a0.66,0.66,0,0,1,.7.55l0.23,1.8a8.07,8.07,0,0,1,2.23-1.91,5.7,5.7,0,0,1,2.88-.72,5.52,5.52,0,0,1,2.38.5A4.89,4.89,0,0,1,70.65,406a7.13,7.13,0,0,1,1.16,2.44,12.51,12.51,0,0,1,.4,3.35,10.49,10.49,0,0,1-.45,3.13,7.54,7.54,0,0,1-1.3,2.5,6,6,0,0,1-4.82,2.27,5.63,5.63,0,0,1-2.39-.46,5.43,5.43,0,0,1-1.76-1.32v6.72H58.8Zm6.78-18.45a4.3,4.3,0,0,0-2.29.6,6.6,6.6,0,0,0-1.81,1.7v7.35a4.18,4.18,0,0,0,1.6,1.4,4.62,4.62,0,0,0,2,.41,3.85,3.85,0,0,0,3.27-1.52,7.08,7.08,0,0,0,1.14-4.32,10.79,10.79,0,0,0-.26-2.55,5,5,0,0,0-.76-1.75,3,3,0,0,0-1.22-1A4,4,0,0,0,65.58,406.14Z" transform="translate(-8.35 -397.35)"/><rect class="cls-1" x="67.36" width="2.67" height="22.1"/><path class="cls-1" d="M88.92,404a6.85,6.85,0,0,1,2.53.46,5.72,5.72,0,0,1,2,1.32,6.05,6.05,0,0,1,1.33,2.13,8.12,8.12,0,0,1,.48,2.89,1.74,1.74,0,0,1-.14.84,0.56,0.56,0,0,1-.51.21H84.46a8.4,8.4,0,0,0,.39,2.5,5.12,5.12,0,0,0,1,1.78,4,4,0,0,0,1.5,1.06,5.14,5.14,0,0,0,1.95.35,5.71,5.71,0,0,0,1.73-.23,8.22,8.22,0,0,0,1.25-.5,9.63,9.63,0,0,0,.88-0.5,1.16,1.16,0,0,1,.61-0.23,0.59,0.59,0,0,1,.51.25l0.75,1a5.06,5.06,0,0,1-1.19,1,7.38,7.38,0,0,1-1.48.73,9.38,9.38,0,0,1-1.63.43,9.92,9.92,0,0,1-1.66.14,7.74,7.74,0,0,1-2.9-.53,6.37,6.37,0,0,1-2.29-1.56A7.16,7.16,0,0,1,82.37,415a10.33,10.33,0,0,1-.54-3.48,8.85,8.85,0,0,1,.49-3,7,7,0,0,1,1.4-2.39A6.45,6.45,0,0,1,86,404.58,7.34,7.34,0,0,1,88.92,404ZM89,406a4.1,4.1,0,0,0-3,1.12,5.26,5.26,0,0,0-1.38,3.1h8.31a5.27,5.27,0,0,0-.26-1.7,3.82,3.82,0,0,0-.77-1.33,3.41,3.41,0,0,0-1.22-.87A4.14,4.14,0,0,0,89,406Z" transform="translate(-8.35 -397.35)"/><path class="cls-1" d="M108.19,419.44a1.16,1.16,0,0,1-.6-0.13,0.87,0.87,0,0,1-.33-0.5l-0.3-1.43q-0.6.54-1.18,1a7.08,7.08,0,0,1-1.2.72,6.34,6.34,0,0,1-1.33.45,7.35,7.35,0,0,1-1.58.16,5.47,5.47,0,0,1-1.67-.25,3.84,3.84,0,0,1-1.36-.74,3.49,3.49,0,0,1-.92-1.25,4.37,4.37,0,0,1-.34-1.79,3.34,3.34,0,0,1,.5-1.73,4.33,4.33,0,0,1,1.6-1.48,10.53,10.53,0,0,1,2.9-1.06,22.08,22.08,0,0,1,4.38-.47v-1.19A4.06,4.06,0,0,0,106,407a2.76,2.76,0,0,0-2.23-.91,4.8,4.8,0,0,0-1.66.25,6.21,6.21,0,0,0-1.15.56l-0.84.56a1.21,1.21,0,0,1-.7.25A0.77,0.77,0,0,1,99,407.6a1.3,1.3,0,0,1-.33-0.35l-0.48-.85a8.68,8.68,0,0,1,2.71-1.82,8.39,8.39,0,0,1,3.23-.6,5.76,5.76,0,0,1,2.27.42,4.65,4.65,0,0,1,1.67,1.17,5,5,0,0,1,1,1.81,7.58,7.58,0,0,1,.34,2.34v9.72h-1.19Zm-5.73-1.63a5.44,5.44,0,0,0,1.29-.14,5.09,5.09,0,0,0,1.1-.41,5.57,5.57,0,0,0,1-.65,9.2,9.2,0,0,0,.92-0.86V412.6a22.22,22.22,0,0,0-3.14.29,8.92,8.92,0,0,0-2.12.61,2.92,2.92,0,0,0-1.18.88,1.9,1.9,0,0,0-.37,1.14,2.52,2.52,0,0,0,.19,1,1.92,1.92,0,0,0,.53.71,2.13,2.13,0,0,0,.79.4A3.63,3.63,0,0,0,102.46,417.81Z" transform="translate(-8.35 -397.35)"/><path class="cls-1" d="M122.29,406.75a0.59,0.59,0,0,1-.55.33,1,1,0,0,1-.51-0.17l-0.7-.37a6.62,6.62,0,0,0-1-.37,4.7,4.7,0,0,0-1.35-.17,4,4,0,0,0-1.22.17,2.92,2.92,0,0,0-.92.47,2.1,2.1,0,0,0-.58.7,1.88,1.88,0,0,0-.2.86,1.44,1.44,0,0,0,.34,1,2.93,2.93,0,0,0,.89.67,7.79,7.79,0,0,0,1.26.5l1.45,0.46q0.74,0.25,1.45.55a5.26,5.26,0,0,1,1.26.75,3.43,3.43,0,0,1,.89,1.1,3.37,3.37,0,0,1,.34,1.57,5,5,0,0,1-.37,1.94,4.24,4.24,0,0,1-1.11,1.54,5.35,5.35,0,0,1-1.8,1,7.41,7.41,0,0,1-2.46.38,7.68,7.68,0,0,1-2.88-.52,7.3,7.3,0,0,1-2.19-1.33l0.63-1a0.92,0.92,0,0,1,.29-0.3,0.77,0.77,0,0,1,.42-0.1,1,1,0,0,1,.57.21q0.3,0.21.73,0.46a5.5,5.5,0,0,0,1,.46,4.78,4.78,0,0,0,1.53.21,4.18,4.18,0,0,0,1.37-.2,2.86,2.86,0,0,0,1-.55,2.16,2.16,0,0,0,.58-0.79,2.47,2.47,0,0,0,.19-1,1.59,1.59,0,0,0-.34-1,2.85,2.85,0,0,0-.89-0.71,7.29,7.29,0,0,0-1.27-.51l-1.46-.46q-0.74-.24-1.45-0.55a5.11,5.11,0,0,1-1.27-.77,3.49,3.49,0,0,1-.89-1.15,3.71,3.71,0,0,1-.34-1.66,4,4,0,0,1,.36-1.67,4.1,4.1,0,0,1,1-1.41,5.17,5.17,0,0,1,1.7-1,6.79,6.79,0,0,1,2.29-.36,7.26,7.26,0,0,1,2.69.47,6.38,6.38,0,0,1,2.06,1.3Z" transform="translate(-8.35 -397.35)"/><path class="cls-1" d="M132.66,404a6.85,6.85,0,0,1,2.53.46,5.72,5.72,0,0,1,2,1.32,6.05,6.05,0,0,1,1.33,2.13,8.12,8.12,0,0,1,.48,2.89,1.74,1.74,0,0,1-.14.84,0.56,0.56,0,0,1-.51.21H128.2a8.4,8.4,0,0,0,.39,2.5,5.12,5.12,0,0,0,1,1.78,4,4,0,0,0,1.5,1.06,5.14,5.14,0,0,0,1.95.35,5.71,5.71,0,0,0,1.73-.23,8.22,8.22,0,0,0,1.25-.5,9.63,9.63,0,0,0,.88-0.5,1.16,1.16,0,0,1,.61-0.23,0.59,0.59,0,0,1,.51.25l0.75,1a5.06,5.06,0,0,1-1.19,1,7.38,7.38,0,0,1-1.48.73,9.38,9.38,0,0,1-1.63.43,9.92,9.92,0,0,1-1.66.14,7.74,7.74,0,0,1-2.9-.53,6.37,6.37,0,0,1-2.29-1.56A7.16,7.16,0,0,1,126.1,415a10.33,10.33,0,0,1-.54-3.48,8.85,8.85,0,0,1,.49-3,7,7,0,0,1,1.4-2.39,6.45,6.45,0,0,1,2.24-1.59A7.34,7.34,0,0,1,132.66,404Zm0.06,2a4.1,4.1,0,0,0-3,1.12,5.26,5.26,0,0,0-1.38,3.1h8.31a5.27,5.27,0,0,0-.26-1.7,3.82,3.82,0,0,0-.77-1.33,3.41,3.41,0,0,0-1.22-.87A4.14,4.14,0,0,0,132.72,406Z" transform="translate(-8.35 -397.35)"/><path class="cls-1" d="M151.12,406.75a0.59,0.59,0,0,1-.55.33,1,1,0,0,1-.51-0.17l-0.7-.37a6.62,6.62,0,0,0-1-.37A4.7,4.7,0,0,0,147,406a4,4,0,0,0-1.22.17,2.92,2.92,0,0,0-.92.47,2.1,2.1,0,0,0-.58.7,1.88,1.88,0,0,0-.2.86,1.44,1.44,0,0,0,.34,1,2.93,2.93,0,0,0,.89.67,7.79,7.79,0,0,0,1.26.5l1.45,0.46q0.74,0.25,1.45.55a5.26,5.26,0,0,1,1.26.75,3.43,3.43,0,0,1,.89,1.1,3.37,3.37,0,0,1,.34,1.57,5,5,0,0,1-.37,1.94,4.24,4.24,0,0,1-1.11,1.54,5.35,5.35,0,0,1-1.8,1,7.41,7.41,0,0,1-2.46.38,7.68,7.68,0,0,1-2.88-.52,7.3,7.3,0,0,1-2.19-1.33l0.63-1a0.92,0.92,0,0,1,.29-0.3,0.77,0.77,0,0,1,.42-0.1,1,1,0,0,1,.57.21q0.3,0.21.73,0.46a5.5,5.5,0,0,0,1,.46,4.78,4.78,0,0,0,1.53.21,4.18,4.18,0,0,0,1.37-.2,2.86,2.86,0,0,0,1-.55,2.16,2.16,0,0,0,.58-0.79,2.47,2.47,0,0,0,.19-1,1.59,1.59,0,0,0-.34-1,2.85,2.85,0,0,0-.89-0.71A7.29,7.29,0,0,0,147,413l-1.46-.46q-0.74-.24-1.45-0.55a5.11,5.11,0,0,1-1.27-.77,3.49,3.49,0,0,1-.89-1.15,3.71,3.71,0,0,1-.34-1.66,4,4,0,0,1,.36-1.67,4.1,4.1,0,0,1,1-1.41,5.17,5.17,0,0,1,1.7-1A6.79,6.79,0,0,1,147,404a7.26,7.26,0,0,1,2.69.47,6.38,6.38,0,0,1,2.06,1.3Z" transform="translate(-8.35 -397.35)"/><path class="cls-1" d="M167.83,404.25v20.34h-2.67v-7.4A8,8,0,0,1,163,419a5.69,5.69,0,0,1-2.8.67,5.49,5.49,0,0,1-2.37-.5,4.91,4.91,0,0,1-1.81-1.48,7,7,0,0,1-1.16-2.43,12.51,12.51,0,0,1-.4-3.34,10.47,10.47,0,0,1,.45-3.13,7.71,7.71,0,0,1,1.29-2.51,6,6,0,0,1,2.06-1.67A6.1,6.1,0,0,1,161,404a5.47,5.47,0,0,1,2.51.52,5.94,5.94,0,0,1,1.84,1.48l0.18-1.19a0.68,0.68,0,0,1,.72-0.55h1.59Zm-6.78,13.24a4.33,4.33,0,0,0,2.3-.6,6.6,6.6,0,0,0,1.81-1.7v-7.35a4.32,4.32,0,0,0-1.6-1.37,4.6,4.6,0,0,0-2-.41,3.83,3.83,0,0,0-3.25,1.51,7.08,7.08,0,0,0-1.14,4.32,11,11,0,0,0,.26,2.54,4.88,4.88,0,0,0,.75,1.74,2.94,2.94,0,0,0,1.21,1A4,4,0,0,0,161.05,417.49Z" transform="translate(-8.35 -397.35)"/><path class="cls-1" d="M174.58,404.25v9.69a4.06,4.06,0,0,0,.79,2.67,3,3,0,0,0,2.41.94A4.6,4.6,0,0,0,180,417a6.86,6.86,0,0,0,1.9-1.55v-11.2h2.67v15.19H183a0.68,0.68,0,0,1-.72-0.56L182,417.25a8.35,8.35,0,0,1-2.22,1.76,5.82,5.82,0,0,1-2.82.67,5.49,5.49,0,0,1-2.2-.41,4.36,4.36,0,0,1-1.6-1.16,4.93,4.93,0,0,1-1-1.81,8.09,8.09,0,0,1-.32-2.35v-9.69h2.67Z" transform="translate(-8.35 -397.35)"/><path class="cls-1" d="M198.45,419.44a1.16,1.16,0,0,1-.6-0.13,0.87,0.87,0,0,1-.33-0.5l-0.3-1.43q-0.6.54-1.18,1a7.08,7.08,0,0,1-1.2.72,6.34,6.34,0,0,1-1.33.45,7.35,7.35,0,0,1-1.58.16,5.47,5.47,0,0,1-1.67-.25,3.84,3.84,0,0,1-1.36-.74,3.49,3.49,0,0,1-.92-1.25,4.37,4.37,0,0,1-.34-1.79,3.34,3.34,0,0,1,.5-1.73,4.33,4.33,0,0,1,1.6-1.48,10.53,10.53,0,0,1,2.9-1.06,22.08,22.08,0,0,1,4.38-.47v-1.19a4.06,4.06,0,0,0-.77-2.68,2.76,2.76,0,0,0-2.23-.91,4.8,4.8,0,0,0-1.66.25,6.21,6.21,0,0,0-1.15.56l-0.84.56a1.21,1.21,0,0,1-.7.25,0.77,0.77,0,0,1-.46-0.14,1.3,1.3,0,0,1-.33-0.35l-0.48-.85a8.68,8.68,0,0,1,2.71-1.82,8.39,8.39,0,0,1,3.23-.6,5.76,5.76,0,0,1,2.27.42,4.65,4.65,0,0,1,1.67,1.17,5,5,0,0,1,1,1.81,7.58,7.58,0,0,1,.34,2.34v9.72h-1.19Zm-5.73-1.63a5.44,5.44,0,0,0,1.29-.14,5.09,5.09,0,0,0,1.1-.41,5.57,5.57,0,0,0,1-.65,9.2,9.2,0,0,0,.92-0.86V412.6a22.22,22.22,0,0,0-3.14.29,8.92,8.92,0,0,0-2.12.61,2.92,2.92,0,0,0-1.18.88,1.9,1.9,0,0,0-.37,1.14,2.52,2.52,0,0,0,.19,1,1.92,1.92,0,0,0,.53.71,2.13,2.13,0,0,0,.79.4A3.63,3.63,0,0,0,192.72,417.81Z" transform="translate(-8.35 -397.35)"/><path class="cls-1" d="M212.55,406.75a0.59,0.59,0,0,1-.55.33,1,1,0,0,1-.51-0.17l-0.7-.37a6.62,6.62,0,0,0-1-.37,4.7,4.7,0,0,0-1.35-.17,4,4,0,0,0-1.22.17,2.92,2.92,0,0,0-.92.47,2.1,2.1,0,0,0-.58.7,1.88,1.88,0,0,0-.2.86,1.44,1.44,0,0,0,.34,1,2.93,2.93,0,0,0,.89.67,7.79,7.79,0,0,0,1.26.5l1.45,0.46q0.74,0.25,1.45.55a5.26,5.26,0,0,1,1.26.75,3.43,3.43,0,0,1,.89,1.1,3.37,3.37,0,0,1,.34,1.57,5,5,0,0,1-.37,1.94,4.24,4.24,0,0,1-1.11,1.54,5.35,5.35,0,0,1-1.8,1,7.41,7.41,0,0,1-2.46.38,7.68,7.68,0,0,1-2.88-.52,7.3,7.3,0,0,1-2.19-1.33l0.63-1a0.92,0.92,0,0,1,.29-0.3,0.77,0.77,0,0,1,.42-0.1,1,1,0,0,1,.57.21q0.3,0.21.73,0.46a5.5,5.5,0,0,0,1,.46,4.78,4.78,0,0,0,1.53.21,4.18,4.18,0,0,0,1.37-.2,2.86,2.86,0,0,0,1-.55,2.16,2.16,0,0,0,.58-0.79,2.47,2.47,0,0,0,.19-1,1.59,1.59,0,0,0-.34-1,2.85,2.85,0,0,0-.89-0.71,7.29,7.29,0,0,0-1.27-.51l-1.46-.46q-0.74-.24-1.45-0.55a5.11,5.11,0,0,1-1.27-.77,3.49,3.49,0,0,1-.89-1.15,3.71,3.71,0,0,1-.34-1.66,4,4,0,0,1,.36-1.67,4.1,4.1,0,0,1,1-1.41,5.17,5.17,0,0,1,1.7-1,6.79,6.79,0,0,1,2.29-.36,7.26,7.26,0,0,1,2.69.47,6.38,6.38,0,0,1,2.06,1.3Z" transform="translate(-8.35 -397.35)"/><path class="cls-1" d="M216.69,419.44v-22.1h2.68v8.94a8.19,8.19,0,0,1,2.16-1.66,5.78,5.78,0,0,1,2.73-.62,5.49,5.49,0,0,1,2.2.41,4.26,4.26,0,0,1,1.59,1.17,5.17,5.17,0,0,1,1,1.82,7.92,7.92,0,0,1,.33,2.35v9.67h-2.69v-9.67a4.09,4.09,0,0,0-.79-2.68,2.93,2.93,0,0,0-2.39-1,4.52,4.52,0,0,0-2.23.57,7.07,7.07,0,0,0-1.88,1.54v11.19h-2.68Z" transform="translate(-8.35 -397.35)"/><path class="cls-1" d="M233,417.79a1.92,1.92,0,0,1,.53-1.33,1.87,1.87,0,0,1,2.06-.41,1.9,1.9,0,0,1,1,1,1.89,1.89,0,0,1,0,1.48,2,2,0,0,1-.41.59,1.82,1.82,0,0,1-.6.4,2,2,0,0,1-1.47,0,1.74,1.74,0,0,1-.59-0.4,1.91,1.91,0,0,1-.39-0.59A1.88,1.88,0,0,1,233,417.79Z" transform="translate(-8.35 -397.35)"/><path class="cls-1" d="M240.51,419.44V404.25h1.6a0.66,0.66,0,0,1,.7.55l0.2,1.56a7.73,7.73,0,0,1,1.89-1.69,4.47,4.47,0,0,1,2.43-.66,3.58,3.58,0,0,1,2.48.85,4.81,4.81,0,0,1,1.37,2.31,5,5,0,0,1,.85-1.42,4.84,4.84,0,0,1,1.16-1,4.93,4.93,0,0,1,1.37-.57A6.12,6.12,0,0,1,256,404a5.62,5.62,0,0,1,2.14.38,4.24,4.24,0,0,1,1.59,1.12,5,5,0,0,1,1,1.81,8,8,0,0,1,.35,2.45v9.67h-2.69v-9.67a4.1,4.1,0,0,0-.78-2.71,2.78,2.78,0,0,0-2.25-.92,3.39,3.39,0,0,0-1.25.23,3,3,0,0,0-1,.68,3.2,3.2,0,0,0-.71,1.13,4.4,4.4,0,0,0-.26,1.58v9.67h-2.69v-9.67a4.25,4.25,0,0,0-.74-2.73,2.61,2.61,0,0,0-2.15-.9,3.35,3.35,0,0,0-1.83.53,6.07,6.07,0,0,0-1.55,1.45v11.33h-2.68Z" transform="translate(-8.35 -397.35)"/><path class="cls-1" d="M271.41,404a6.85,6.85,0,0,1,2.53.46,5.72,5.72,0,0,1,2,1.32,6.05,6.05,0,0,1,1.33,2.13,8.12,8.12,0,0,1,.48,2.89,1.74,1.74,0,0,1-.14.84,0.56,0.56,0,0,1-.51.21H267a8.4,8.4,0,0,0,.39,2.5,5.12,5.12,0,0,0,1,1.78,4,4,0,0,0,1.5,1.06,5.14,5.14,0,0,0,1.95.35,5.71,5.71,0,0,0,1.73-.23,8.22,8.22,0,0,0,1.25-.5,9.63,9.63,0,0,0,.88-0.5,1.16,1.16,0,0,1,.61-0.23,0.59,0.59,0,0,1,.51.25l0.75,1a5.06,5.06,0,0,1-1.19,1,7.38,7.38,0,0,1-1.48.73,9.38,9.38,0,0,1-1.63.43,9.92,9.92,0,0,1-1.66.14,7.74,7.74,0,0,1-2.9-.53,6.37,6.37,0,0,1-2.29-1.56,7.16,7.16,0,0,1-1.51-2.54,10.33,10.33,0,0,1-.54-3.48,8.85,8.85,0,0,1,.49-3,7,7,0,0,1,1.4-2.39,6.45,6.45,0,0,1,2.24-1.59A7.34,7.34,0,0,1,271.41,404Zm0.06,2a4.1,4.1,0,0,0-3,1.12,5.26,5.26,0,0,0-1.38,3.1h8.31a5.27,5.27,0,0,0-.26-1.7,3.82,3.82,0,0,0-.77-1.33,3.41,3.41,0,0,0-1.22-.87A4.14,4.14,0,0,0,271.47,406Z" transform="translate(-8.35 -397.35)"/><path class="cls-2" d="M29.85,423.08h-1.5a3.5,3.5,0,1,1-1-2.47,3.48,3.48,0,0,1,1,2.47h3a6.5,6.5,0,1,0-6.5,6.5,6.5,6.5,0,0,0,6.5-6.5h-1.5Z" transform="translate(-8.35 -397.35)"/><path class="cls-2" d="M24.85,414.08h-1.5a3.5,3.5,0,1,1-1-2.47,3.48,3.48,0,0,1,1,2.47h3a6.5,6.5,0,1,0-6.5,6.5,6.5,6.5,0,0,0,6.5-6.5h-1.5Z" transform="translate(-8.35 -397.35)"/><path class="cls-2" d="M19.85,404.08h-1.5a3.5,3.5,0,1,1-1-2.47,3.48,3.48,0,0,1,1,2.47h3a6.5,6.5,0,1,0-6.5,6.5,6.5,6.5,0,0,0,6.5-6.5h-1.5Z" transform="translate(-8.35 -397.35)"/><path class="cls-2" d="M34.85,414.08h-1.5a3.5,3.5,0,1,1-1-2.47,3.48,3.48,0,0,1,1,2.47h3a6.5,6.5,0,1,0-6.5,6.5,6.5,6.5,0,0,0,6.5-6.5h-1.5Z" transform="translate(-8.35 -397.35)"/><path class="cls-2" d="M29.85,404.08h-1.5a3.5,3.5,0,1,1-1-2.47,3.48,3.48,0,0,1,1,2.47h3a6.5,6.5,0,1,0-6.5,6.5,6.5,6.5,0,0,0,6.5-6.5h-1.5Z" transform="translate(-8.35 -397.35)"/><path class="cls-2" d="M39.85,404.08h-1.5a3.5,3.5,0,1,1-1-2.47,3.48,3.48,0,0,1,1,2.47h3a6.5,6.5,0,1,0-6.5,6.5,6.5,6.5,0,0,0,6.5-6.5h-1.5Z" transform="translate(-8.35 -397.35)"/></svg>
